<?xml version="1.0" standalone="no"?>
<!DOCTYPE svg PUBLIC "-//W3C//DTD SVG 20010904//EN"
 "http://www.w3.org/TR/2001/REC-SVG-20010904/DTD/svg10.dtd">
<svg version="1.0" xmlns="http://www.w3.org/2000/svg"
 width="960.000000pt" height="960.000000pt" viewBox="0 0 960.000000 960.000000"
 preserveAspectRatio="xMidYMid meet">
<metadata>
Created by potrace 1.14, written by Peter Selinger 2001-2017
</metadata>
<g transform="translate(0.000000,960.000000) scale(0.100000,-0.100000)"
fill="#000000" stroke="none">
<path d="M5599 8311 c16 -10 6 -31 -14 -31 -7 0 -15 -5 -17 -12 -3 -9 -12 -9
-37 0 -18 7 -45 9 -59 5 -17 -4 -23 -2 -18 6 4 7 0 11 -11 11 -10 0 -24 -9
-30 -20 -15 -23 -95 -48 -101 -31 -2 6 -13 11 -25 11 -12 0 -40 9 -61 21 -36
19 -149 40 -134 25 6 -8 31 -14 59 -15 22 -1 109 -60 109 -74 0 -7 -20 -20
-45 -30 -25 -11 -45 -23 -45 -28 0 -5 -11 -9 -25 -9 -14 0 -25 -3 -25 -8 0 -4
-14 -13 -31 -21 -16 -7 -41 -25 -54 -39 -13 -14 -27 -23 -31 -19 -4 3 7 20 25
36 17 16 31 34 31 40 0 16 -5 14 -41 -19 -17 -17 -38 -29 -46 -26 -8 4 -18 -5
-25 -22 -9 -22 -12 -24 -15 -9 -4 17 10 33 69 80 18 14 19 17 5 13 -10 -3 -26
-6 -36 -6 -10 0 -37 -28 -64 -65 -27 -37 -54 -65 -64 -65 -14 0 -15 -2 -4 -9
9 -6 11 -18 7 -35 -7 -28 -26 -36 -26 -11 0 8 -5 15 -11 15 -5 0 -7 -4 -4 -10
3 -5 1 -10 -4 -10 -6 0 -11 -5 -11 -11 0 -5 5 -7 12 -3 7 4 8 3 4 -5 -4 -6 -2
-19 6 -28 11 -15 11 -16 -6 -10 -14 6 -17 4 -12 -9 4 -11 -3 -25 -21 -40 -36
-31 -45 -30 -32 2 5 15 8 29 5 31 -6 6 -46 -39 -46 -53 0 -6 -9 -14 -20 -17
-12 -3 -20 -14 -20 -26 0 -20 -36 -44 -51 -35 -3 2 -18 -18 -32 -44 -20 -36
-27 -42 -27 -24 0 12 -4 22 -9 22 -12 0 -23 -48 -16 -71 7 -22 4 -23 -29 -8
-13 6 -27 20 -29 31 -4 12 -10 17 -17 13 -9 -5 -9 -10 -1 -18 6 -6 11 -20 11
-31 0 -16 -3 -17 -12 -8 -22 22 -30 12 -22 -30 10 -58 5 -131 -9 -143 -6 -5
-8 -6 -4 -1 3 5 -1 15 -10 21 -12 9 -17 25 -15 51 1 36 0 37 -10 14 -6 -14
-10 -65 -9 -113 2 -72 -2 -96 -19 -131 -16 -34 -25 -43 -39 -39 -13 3 -21 -2
-25 -14 -9 -29 -10 -129 -1 -143 6 -9 2 -10 -15 -5 -21 7 -22 5 -16 -21 4 -16
11 -49 15 -74 4 -25 13 -55 20 -68 17 -31 7 -52 -23 -52 -14 0 -28 -5 -32 -12
-5 -7 -3 -8 6 -3 8 5 11 4 6 -3 -4 -6 -14 -8 -23 -5 -13 5 -15 2 -10 -12 4 -9
2 -24 -5 -33 -11 -13 -10 -15 10 -10 12 4 22 2 22 -3 0 -5 8 -9 18 -9 13 0 17
-8 17 -37 0 -32 3 -37 19 -35 14 3 17 -1 13 -12 -4 -9 -2 -16 3 -16 4 0 12
-15 16 -32 3 -18 14 -38 23 -45 9 -7 11 -13 6 -13 -6 0 -11 -21 -12 -47 -2
-45 -1 -46 11 -24 11 20 14 21 19 6 4 -9 8 -53 8 -98 1 -45 4 -72 6 -59 5 27
23 29 23 3 0 -11 5 -32 12 -48 6 -15 11 -31 10 -35 -1 -4 5 -5 13 -2 10 4 17
-7 25 -38 13 -47 40 -113 71 -169 23 -44 24 -59 5 -59 -8 0 -24 -14 -36 -30
-20 -27 -21 -38 -15 -118 6 -68 3 -100 -10 -146 -18 -61 -15 -137 5 -161 6 -7
17 -44 25 -81 19 -90 44 -163 87 -249 19 -38 40 -86 47 -106 15 -45 43 -72
105 -99 36 -17 59 -20 91 -16 41 7 43 5 63 -27 11 -19 23 -45 27 -58 5 -13 18
-38 31 -55 13 -17 24 -38 24 -48 0 -9 7 -19 15 -22 8 -4 15 -14 15 -23 0 -9
15 -45 32 -81 34 -68 36 -70 69 -110 11 -13 29 -40 41 -60 12 -19 37 -51 56
-72 32 -34 35 -43 48 -145 15 -122 18 -293 5 -293 -4 0 -24 -11 -44 -24 -19
-13 -38 -22 -41 -18 -3 3 -6 0 -6 -6 0 -7 -6 -12 -13 -12 -7 0 -19 -9 -27 -21
-29 -40 -50 -62 -50 -51 0 7 -4 12 -10 12 -5 0 -10 -7 -10 -15 0 -10 -10 -15
-30 -15 -16 0 -30 5 -30 10 0 6 7 10 15 10 13 0 14 2 3 14 -20 21 -77 -44 -70
-80 3 -18 1 -25 -9 -23 -18 4 -59 -10 -59 -20 0 -7 -81 -13 -198 -15 -28 -1
-52 -4 -52 -7 0 -4 -12 -10 -27 -14 -16 -3 -77 -30 -138 -60 -60 -29 -132 -59
-160 -66 -27 -6 -54 -15 -60 -19 -5 -4 -31 -11 -58 -14 -26 -4 -80 -19 -120
-33 -39 -14 -94 -31 -122 -38 -143 -38 -322 -86 -335 -91 -8 -3 -17 -6 -20 -6
-5 -1 -66 -27 -157 -68 -29 -12 -53 -27 -53 -31 0 -5 -6 -9 -14 -9 -14 0 -142
-60 -234 -109 -95 -52 -292 -221 -292 -251 0 -7 19 7 43 31 68 71 159 149 192
166 16 9 37 21 45 28 18 15 92 53 185 95 39 17 106 49 150 71 99 48 179 76
269 95 38 8 74 18 80 23 6 4 40 14 76 21 36 6 70 16 75 20 10 8 94 31 260 71
44 11 87 23 95 28 8 4 42 16 75 25 33 10 67 24 75 31 8 7 40 18 70 24 30 6 65
13 78 17 13 4 22 2 22 -4 0 -10 -60 -32 -88 -32 -7 0 -11 -4 -7 -9 3 -5 -3
-12 -12 -15 -10 -2 0 -2 22 0 22 3 53 10 69 17 23 8 31 8 40 -5 14 -19 76 -20
76 -1 0 7 9 13 20 13 23 0 25 -9 7 -34 -11 -15 -31 -20 -90 -24 -78 -5 -88
-10 -63 -31 8 -7 17 -24 21 -38 9 -36 39 -64 100 -94 49 -23 55 -25 84 -28 8
-1 11 -8 8 -20 -5 -21 25 -41 31 -22 6 17 30 13 52 -9 11 -11 27 -20 35 -20 8
0 15 -4 15 -9 0 -5 14 -14 30 -20 17 -5 34 -21 40 -35 7 -18 14 -23 30 -19 19
5 20 3 14 -22 -6 -24 -4 -27 10 -22 10 4 16 1 16 -9 0 -8 11 -19 25 -24 14 -5
25 -16 25 -25 0 -8 8 -23 18 -32 40 -39 82 -73 82 -67 0 9 54 -27 63 -43 5 -7
41 -29 80 -49 40 -19 85 -49 100 -67 19 -21 27 -26 22 -13 -5 18 -4 19 12 4
10 -8 26 -18 36 -21 9 -4 16 -12 15 -19 -2 -6 5 -14 15 -16 11 -2 27 -12 38
-23 10 -10 37 -22 59 -25 22 -4 45 -13 51 -21 10 -11 14 -11 20 -1 7 10 9 9 9
-4 0 -14 9 -18 35 -19 47 -2 52 -3 61 -12 4 -4 17 -7 29 -7 16 0 21 6 21 23
-1 20 4 22 47 22 26 1 47 -3 47 -8 0 -5 16 -7 35 -5 19 2 36 1 37 -3 2 -4 38
-9 81 -11 l79 -3 -39 16 c-21 9 -42 14 -46 12 -14 -8 -57 19 -57 35 0 11 3 12
13 4 9 -8 30 -7 72 3 33 7 63 11 68 8 5 -3 11 5 14 16 4 16 11 20 24 16 14 -5
19 -1 19 14 0 25 27 28 33 4 3 -10 5 2 6 27 1 34 4 41 13 32 18 -18 28 -15 28
10 0 28 17 12 22 -22 3 -18 7 -9 14 30 l10 55 9 -55 10 -55 5 95 c3 52 7 93
10 91 3 -3 34 1 70 9 36 7 71 12 78 11 6 -1 12 2 12 8 0 5 -6 11 -12 14 -7 2
-9 8 -5 13 5 5 14 1 22 -9 9 -13 22 -17 42 -14 l28 4 -27 2 c-22 1 -28 6 -28
23 0 21 1 21 13 3 10 -13 16 -15 21 -6 5 7 5 15 2 18 -3 4 -6 0 -7 -8 -1 -19
-17 31 -17 56 l-1 20 9 -20 c5 -12 6 3 3 38 -4 42 -2 62 9 75 8 9 21 33 28 52
8 19 29 47 47 63 38 34 35 47 -11 47 -29 0 -35 5 -49 38 -20 48 -30 96 -30
150 1 31 -3 42 -14 42 -12 0 -9 9 11 34 16 21 23 41 20 51 -4 10 -1 21 7 26
11 7 10 11 -6 23 -11 9 -14 16 -7 16 6 0 12 11 12 25 0 14 6 28 14 31 7 3 21
23 31 44 9 21 26 40 36 43 10 3 23 16 28 29 9 21 10 21 10 -10 1 -45 21 -31
21 15 0 24 4 34 13 30 6 -2 20 6 30 19 11 15 13 24 6 24 -16 0 -3 44 27 90 14
21 27 53 28 71 2 22 9 35 23 40 11 4 26 22 33 41 7 18 19 47 26 65 8 17 14 38
14 46 0 9 4 18 9 21 5 3 7 15 4 26 -4 15 0 20 14 20 16 0 19 5 16 24 -4 17 0
25 13 28 13 2 18 13 19 43 3 55 14 93 31 99 8 3 14 15 14 26 0 14 4 19 12 14
8 -5 9 -2 5 10 -4 10 -3 25 2 34 5 9 12 42 15 72 9 77 16 110 24 110 4 0 8 14
9 31 1 17 7 37 13 44 6 7 8 25 4 41 -5 19 -4 25 5 20 8 -5 10 8 6 51 -4 44 -3
53 5 38 8 -16 9 -13 6 18 -3 21 0 50 5 65 14 35 19 58 26 110 6 46 24 62 48
42 8 -6 18 -9 24 -6 5 3 11 0 14 -6 3 -10 10 -10 31 1 l26 15 -31 13 c-17 7
-40 13 -50 13 -10 0 -21 5 -24 10 -4 6 -9 77 -11 158 -3 81 -6 164 -8 185 -2
20 0 37 5 37 10 0 1 48 -11 65 -8 10 -19 85 -13 85 7 0 43 -41 43 -49 0 -5 7
-14 15 -21 8 -7 12 -16 9 -22 -3 -5 -1 -14 4 -21 12 -15 -4 -61 -18 -52 -5 3
-10 -3 -10 -14 0 -11 5 -23 10 -26 7 -4 6 -13 -1 -27 -8 -15 -8 -23 1 -32 17
-16 50 28 50 69 0 27 5 34 38 49 31 14 42 28 65 81 33 78 33 80 2 120 -13 18
-22 35 -19 38 8 7 -46 16 -121 19 -57 3 -60 2 -64 -22 -6 -39 -30 64 -31 130
0 56 25 140 56 187 25 39 35 83 19 83 -10 0 -11 7 -4 28 5 15 11 53 15 85 3
31 11 63 19 70 9 10 11 25 5 57 -8 45 -4 74 10 65 5 -3 6 4 3 15 -3 11 -2 28
2 37 11 27 14 103 4 109 -5 3 -9 17 -9 31 0 25 -28 83 -41 83 -3 0 -5 38 -4
86 1 51 -3 88 -9 92 -22 13 -46 12 -46 -3 0 -8 -7 -15 -15 -15 -8 0 -15 4 -15
8 0 5 -9 18 -21 30 -23 25 -32 59 -19 67 5 3 15 -4 23 -15 7 -11 17 -17 20
-13 4 3 7 -6 7 -20 0 -15 5 -27 10 -27 17 0 23 29 10 45 -9 10 -9 15 -1 15 6
0 11 7 11 15 0 14 -10 18 -27 13 -5 -2 -7 -9 -5 -15 2 -7 -2 -13 -8 -13 -5 0
-10 11 -10 25 0 14 5 25 10 25 6 0 10 9 10 21 0 11 -4 17 -10 14 -5 -3 -10 -2
-10 3 0 5 9 12 21 15 21 6 18 29 -4 26 -25 -3 -34 2 -34 19 0 9 5 20 11 24 7
5 4 8 -6 8 -10 0 -18 5 -18 10 0 6 -5 10 -11 10 -6 0 -8 -9 -4 -20 4 -11 2
-20 -4 -20 -10 0 -16 21 -12 43 2 11 -13 9 -27 -5 -19 -19 9 59 28 80 20 21
40 57 40 69 0 4 -8 -1 -17 -12 -10 -12 -14 -14 -10 -4 2 8 -1 26 -9 40 -16 29
-18 42 -4 34 6 -3 10 3 10 14 0 12 -7 21 -15 21 -8 0 -15 7 -15 16 0 8 4 13 9
10 5 -3 11 1 14 9 4 9 1 12 -8 9 -9 -4 -21 10 -36 43 -13 26 -26 50 -29 53 -4
3 -9 12 -12 20 -3 9 -8 2 -12 -18 -7 -31 -26 -36 -26 -6 0 8 -11 25 -24 37
-13 12 -26 32 -30 45 -4 12 -12 22 -17 22 -5 0 -17 16 -26 35 -9 19 -20 35
-24 35 -4 0 -24 15 -45 34 -21 19 -52 38 -69 41 -16 4 -35 9 -41 10 -6 2 -30
17 -54 34 -42 31 -93 41 -105 21 -4 -6 -10 -8 -15 -5 -5 3 -20 1 -34 -5 -17
-6 -27 -6 -32 1 -4 6 -14 4 -30 -5 -30 -20 -40 -20 -24 -1 19 23 8 27 -70 32
-69 4 -70 3 -70 -22 0 -23 4 -25 45 -25 71 0 54 -32 -23 -44 -39 -6 -42 -5
-33 12 14 27 -2 44 -45 48 -21 2 -41 9 -43 15 -2 6 -12 19 -22 27 -11 9 -19
22 -19 28 0 19 -50 25 -122 15 -70 -10 -108 -6 -108 11 0 12 -93 1 -135 -17
-17 -7 -44 -10 -61 -8 -20 3 -36 -1 -47 -11 -23 -23 -31 -20 -53 20 -16 31
-25 37 -59 40 -25 2 -35 0 -26 -5z m81 -46 c10 -12 9 -16 -4 -21 -9 -4 -20 -4
-23 0 -9 8 -34 -14 -27 -25 3 -5 1 -9 -5 -9 -20 0 -20 17 1 43 25 31 40 34 58
12z m-200 -17 c0 -7 -5 -20 -10 -28 -8 -12 -10 -9 -10 13 0 15 5 27 10 27 6 0
10 -6 10 -12z m297 6 c-3 -3 -12 -4 -19 -1 -8 3 -5 6 6 6 11 1 17 -2 13 -5z
m435 -42 c-18 -14 -20 -20 -10 -30 13 -13 5 -27 -11 -17 -6 3 -11 19 -11 36 0
25 4 29 28 29 l27 0 -23 -18z m-857 -14 c-19 -11 -30 -5 -21 11 4 6 14 7 22 4
15 -5 14 -7 -1 -15z m1340 -36 c-2 -2 -13 2 -24 10 -12 8 -18 17 -15 21 3 3
14 -2 25 -11 10 -9 17 -18 14 -20z m-535 14 c0 -11 -19 -15 -25 -6 -3 5 1 10
9 10 9 0 16 -2 16 -4z m-810 -16 c0 -5 -5 -10 -11 -10 -5 0 -7 5 -4 10 3 6 8
10 11 10 2 0 4 -4 4 -10z m60 -20 c0 -5 -4 -10 -10 -10 -5 0 -10 5 -10 10 0 6
5 10 10 10 6 0 10 -4 10 -10z m70 0 c0 -5 -5 -10 -11 -10 -5 0 -7 5 -4 10 3 6
8 10 11 10 2 0 4 -4 4 -10z m57 -26 c-3 -3 -12 -4 -19 -1 -8 3 -5 6 6 6 11 1
17 -2 13 -5z m98 -4 c4 -6 -8 -10 -29 -10 -20 0 -36 5 -36 10 0 6 13 10 29 10
17 0 33 -4 36 -10z m1231 -25 c10 -26 -1 -35 -13 -10 -6 14 -7 25 -2 25 5 0
12 -7 15 -15z m-1058 -34 c11 -6 9 -9 -5 -13 -12 -3 -20 0 -20 8 0 16 6 17 25
5z m585 -12 c-11 -12 -27 -19 -34 -17 -9 3 -3 11 16 21 40 22 43 21 18 -4z
m-1073 -39 c0 -5 -9 -10 -21 -10 -11 0 -17 5 -14 10 3 6 13 10 21 10 8 0 14
-4 14 -10z m-440 -44 c0 -3 -4 -8 -10 -11 -5 -3 -10 -1 -10 4 0 6 5 11 10 11
6 0 10 -2 10 -4z m490 -6 c12 -8 11 -10 -7 -10 -13 0 -23 5 -23 10 0 13 11 13
30 0z m134 1 c18 -7 18 -8 3 -14 -9 -3 -17 -2 -17 3 0 6 -5 10 -11 10 -5 0 -7
-5 -3 -12 5 -8 2 -9 -10 -5 -10 4 -29 7 -42 7 -14 0 -22 4 -19 10 7 12 71 12
99 1z m156 -25 c0 -11 -19 -15 -25 -6 -3 5 1 10 9 10 9 0 16 -2 16 -4z m100
-6 c0 -5 -7 -10 -16 -10 -8 0 -12 5 -9 10 3 6 10 10 16 10 5 0 9 -4 9 -10z
m417 -32 c-3 -8 -6 -5 -6 6 -1 11 2 17 5 13 3 -3 4 -12 1 -19z m-727 -3 c0 -9
-6 -12 -15 -9 -8 4 -15 10 -15 15 0 5 7 9 15 9 8 0 15 -7 15 -15z m125 5 c3
-5 -1 -10 -9 -10 -8 0 -18 5 -21 10 -3 6 1 10 9 10 8 0 18 -4 21 -10z m-957
-195 c-12 -27 -28 -34 -28 -12 0 14 20 37 32 37 4 0 2 -11 -4 -25z m1839 -27
c-3 -8 -6 -5 -6 6 -1 11 2 17 5 13 3 -3 4 -12 1 -19z m-362 -89 c-6 -18 -4
-20 17 -13 43 14 61 10 69 -16 4 -14 7 -18 8 -9 1 9 12 21 25 27 20 9 25 8 30
-4 4 -10 2 -12 -6 -8 -6 4 -8 3 -5 -3 4 -6 18 -8 32 -5 15 2 37 -1 50 -8 32
-17 58 -6 50 20 -8 25 -4 25 26 0 76 -62 98 -73 124 -62 28 13 62 5 69 -15 4
-11 2 -13 -9 -9 -8 3 -15 1 -15 -4 0 -6 11 -10 25 -10 14 0 25 5 25 10 0 12
37 9 58 -3 6 -5 12 -19 12 -32 0 -18 4 -22 20 -18 21 5 28 -11 10 -22 -18 -11
-11 -31 16 -45 23 -13 24 -15 7 -21 -16 -7 -17 -8 0 -8 9 -1 17 -8 17 -16 0
-9 6 -12 16 -8 10 4 15 1 13 -8 -2 -8 3 -31 10 -52 10 -29 17 -36 31 -32 26 8
58 -58 56 -117 -1 -45 -1 -45 29 -42 17 2 24 1 18 -2 -7 -3 -13 -13 -13 -21 0
-11 -3 -13 -13 -5 -20 17 -39 -1 -31 -32 10 -40 27 -45 20 -5 -5 31 -5 31 4 9
6 -13 8 -35 5 -47 -4 -16 -1 -23 10 -23 8 0 15 -7 15 -15 0 -23 18 -18 23 8 2
13 5 5 6 -18 2 -49 21 -108 45 -134 16 -18 66 -149 66 -174 0 -7 7 -25 15 -40
8 -16 17 -52 21 -80 7 -57 30 -140 73 -262 38 -107 71 -262 65 -305 -2 -19 -6
-109 -9 -200 -2 -91 -5 -167 -6 -170 -1 -3 -1 -8 0 -12 0 -4 -11 -24 -25 -45
-24 -35 -26 -36 -20 -10 3 15 2 27 -3 27 -11 0 -21 -25 -21 -52 0 -16 -5 -19
-21 -15 -18 5 -20 2 -14 -20 5 -20 3 -24 -9 -20 -8 3 -16 -2 -19 -14 -7 -26
-25 -24 -39 6 -6 14 -15 25 -20 25 -14 0 -9 -22 10 -43 9 -11 12 -18 6 -14 -6
3 -20 0 -30 -8 -10 -8 -27 -15 -36 -15 -11 0 -18 -8 -18 -20 0 -13 -7 -20 -20
-20 -23 0 -24 4 -9 32 9 17 6 24 -22 49 -18 16 -38 29 -45 29 -17 0 -25 25
-11 39 8 8 5 11 -11 11 -12 0 -22 -4 -22 -10 0 -5 -5 -10 -11 -10 -6 0 -9 7
-6 14 4 10 1 13 -8 10 -8 -3 -21 6 -30 20 -10 16 -30 28 -51 32 -19 3 -34 12
-34 20 0 8 -9 14 -19 14 -10 0 -21 6 -24 13 -5 14 -123 77 -143 77 -5 0 -15 5
-22 12 -21 21 -87 38 -169 44 -82 5 -98 -1 -68 -26 24 -20 65 -101 65 -130 0
-36 -25 -57 -84 -70 -46 -10 -95 -39 -144 -87 -23 -21 -50 -24 -85 -8 -18 7
-67 3 -99 -10 -11 -4 -19 -2 -21 6 -2 8 -12 37 -22 64 -10 28 -19 68 -21 90
-1 22 -12 60 -23 85 -17 38 -19 60 -15 145 5 113 19 204 34 219 6 6 5 16 -1
29 -16 28 9 145 33 158 28 15 62 7 67 -16 2 -11 8 -23 13 -26 6 -4 19 -30 28
-58 10 -28 26 -58 35 -68 9 -9 21 -27 26 -40 6 -17 14 -23 27 -19 21 7 54 -13
35 -21 -22 -8 -14 -23 12 -23 18 0 23 4 19 15 -8 19 1 19 31 -1 21 -13 28 -14
40 -4 9 7 14 22 13 34 -3 21 0 21 142 18 137 -3 152 -1 260 28 63 18 131 35
150 40 l35 8 -35 3 c-19 1 -47 2 -62 1 -45 -3 -35 25 13 38 63 17 35 32 -63
33 -45 1 -86 6 -90 11 -9 13 10 36 28 36 8 0 14 9 14 20 0 12 5 17 14 14 8 -3
17 -1 20 4 3 6 22 6 48 0 69 -14 149 -9 196 13 l42 21 -27 29 c-16 16 -34 29
-40 29 -7 0 -13 4 -13 9 0 5 -9 11 -20 14 -30 8 -35 35 -11 61 24 25 27 42 9
48 -9 3 -8 10 5 22 26 27 16 41 -26 38 -28 -3 -37 0 -37 12 0 10 9 16 25 16
14 0 25 5 25 10 0 6 -4 10 -10 10 -5 0 -10 5 -10 11 0 6 7 9 15 5 10 -3 15 1
15 12 0 16 -7 24 -52 60 -9 7 -42 17 -74 23 -78 14 -327 20 -334 8 -4 -5 -33
-14 -66 -19 -98 -18 -155 -32 -183 -46 -14 -8 -39 -14 -54 -14 -19 0 -39 -10
-56 -29 -30 -32 -70 -33 -72 -2 0 10 -3 8 -10 -7 -6 -16 -14 -22 -27 -18 -10
4 -36 -3 -58 -13 -27 -14 -43 -16 -51 -9 -9 7 -13 7 -13 -1 0 -6 -7 -11 -15
-11 -8 0 -19 -9 -25 -20 -6 -11 -18 -20 -26 -20 -8 0 -12 -5 -8 -11 4 -8 0 -8
-15 0 -12 7 -25 10 -30 7 -5 -3 -27 8 -49 24 -35 25 -47 28 -92 24 -64 -5 -75
5 -83 74 -5 44 -3 53 13 62 10 5 22 19 25 31 4 12 13 18 20 15 8 -3 16 0 18 7
3 9 8 9 20 -2 15 -12 21 -9 46 18 35 38 45 39 39 6 -6 -30 7 -43 15 -15 6 23
27 27 27 5 0 -8 5 -15 10 -15 13 0 13 6 -1 32 -17 32 -4 66 26 66 14 0 29 2
32 6 10 10 -50 51 -71 47 -19 -3 -19 -2 -1 16 13 13 20 14 23 5 5 -15 22 -16
22 -1 0 6 -7 18 -16 26 -10 10 -13 25 -9 41 5 21 3 24 -14 19 -21 -5 -26 8
-24 61 1 6 -3 12 -8 12 -5 0 -9 10 -9 23 0 21 1 20 25 -8 23 -29 24 -29 18 -5
-4 14 -13 30 -21 36 -15 11 -14 27 4 98 5 22 3 26 -14 26 -11 0 -23 -6 -25
-12 -3 -7 -6 4 -6 24 -1 28 4 40 19 48 16 9 18 15 10 30 -15 27 -12 33 10 27
13 -3 20 0 20 9 0 8 11 19 25 24 14 5 25 16 25 25 0 8 7 15 15 15 8 0 15 7 15
15 0 9 11 21 25 27 14 6 24 17 21 24 -3 8 2 10 15 7 24 -7 59 27 59 57 0 12 4
18 10 15 5 -3 22 7 36 22 15 15 30 27 35 26 5 -2 9 3 9 11 0 8 6 16 14 19 10
4 12 -1 9 -16 -3 -13 -1 -18 4 -12 4 6 22 17 38 25 17 8 33 16 37 18 3 2 8 -5
11 -15 3 -13 5 -11 6 7 1 20 3 22 11 10 5 -8 10 -12 11 -7 1 4 3 12 4 17 1 6
3 12 4 15 0 3 6 5 12 5 6 0 8 -9 4 -21z m-1229 -46 c-10 -10 -19 5 -10 18 6
11 8 11 12 0 2 -7 1 -15 -2 -18z m2449 -323 c-4 -12 -9 -19 -12 -17 -3 3 -2
15 2 27 4 12 9 19 12 17 3 -3 2 -15 -2 -27z m-1725 -129 c15 -28 13 -33 -10
-21 -11 6 -20 17 -20 25 0 21 17 18 30 -4z m1337 -123 c-3 -8 -6 -5 -6 6 -1
11 2 17 5 13 3 -3 4 -12 1 -19z m-2627 -218 c0 -5 -4 -10 -10 -10 -5 0 -10 5
-10 10 0 6 5 10 10 10 6 0 10 -4 10 -10z m2430 -300 c0 -5 -8 -10 -17 -10 -15
0 -16 2 -3 10 19 12 20 12 20 0z m-205 -330 c3 -5 1 -10 -4 -10 -6 0 -11 5
-11 10 0 6 2 10 4 10 3 0 8 -4 11 -10z m-1107 -458 c2 -7 -10 -17 -27 -23 -17
-6 -31 -17 -31 -24 0 -16 35 -9 51 11 19 23 36 16 48 -18 14 -40 11 -44 -39
-47 -22 -1 -27 -26 -7 -35 8 -3 5 -11 -10 -24 -26 -23 -29 -38 -10 -45 6 -3
-6 -3 -27 0 -26 4 -37 3 -33 -4 5 -8 -7 -9 -35 -6 -24 3 -47 12 -51 19 -4 8
-17 14 -27 14 -11 0 -20 5 -20 10 0 6 -7 10 -15 10 -8 0 -15 7 -15 15 0 8 4
15 9 15 4 0 6 18 4 40 -3 29 0 40 9 40 8 0 31 9 53 20 22 11 55 20 75 20 19 0
44 7 55 15 21 17 37 15 43 -3z m47 -122 c3 -5 1 -10 -4 -10 -6 0 -11 5 -11 10
0 6 2 10 4 10 3 0 8 -4 11 -10z m1775 -66 c0 -8 -4 -12 -10 -9 -5 3 -10 13
-10 21 0 8 5 12 10 9 6 -3 10 -13 10 -21z m-10 -38 c0 -3 -4 -8 -10 -11 -5 -3
-10 -1 -10 4 0 6 5 11 10 11 6 0 10 -2 10 -4z m-1893 -42 c-3 -3 -12 -4 -19
-1 -8 3 -5 6 6 6 11 1 17 -2 13 -5z m1606 -128 c14 -35 -28 -236 -50 -244 -7
-2 -13 3 -13 12 0 9 -4 16 -9 16 -10 0 7 91 20 105 5 5 9 17 9 27 0 10 6 18
13 18 8 0 7 4 -3 10 -11 7 -12 10 -2 10 8 0 13 10 12 23 -1 12 -2 25 -1 30 2
12 19 8 24 -7z m-593 -66 c0 -5 -4 -10 -10 -10 -5 0 -10 5 -10 10 0 6 5 10 10
10 6 0 10 -4 10 -10z m-80 -31 c0 -5 -7 -9 -15 -9 -15 0 -20 12 -9 23 8 8 24
-1 24 -14z m-121 -53 c10 -12 6 -17 -26 -25 -51 -14 -73 -14 -73 2 0 35 75 52
99 23z m245 -23 c12 -13 46 -13 47 0 0 6 5 1 10 -12 11 -28 5 -51 -13 -51 -7
0 -18 -11 -24 -24 -10 -22 -9 -25 20 -29 17 -3 46 -8 64 -11 45 -7 82 8 82 34
0 31 28 80 46 80 14 0 15 -8 10 -54 -7 -51 4 -81 19 -56 3 5 13 10 21 10 11 0
13 -6 9 -20 -4 -12 -2 -27 4 -34 7 -8 6 -27 -3 -63 -13 -47 -12 -51 3 -47 14
5 14 4 -1 -6 -10 -6 -20 -27 -24 -46 -4 -20 -12 -38 -20 -41 -8 -3 -11 -16 -7
-39 4 -23 2 -34 -6 -34 -7 0 -9 -5 -6 -10 4 -7 16 -1 31 15 l24 26 0 -25 c0
-16 5 -25 13 -24 6 2 12 -6 12 -17 1 -11 6 -19 12 -18 6 1 20 -8 32 -21 l21
-22 -42 3 c-24 1 -38 0 -32 -5 6 -4 17 -18 24 -31 10 -19 10 -25 -1 -32 -9 -5
-17 -2 -21 9 -5 9 -6 -3 -3 -28 4 -41 3 -43 -7 -17 -11 26 -27 34 -41 20 -4
-3 -3 -11 2 -17 6 -7 4 -21 -4 -36 -10 -18 -14 -20 -15 -8 0 17 -15 19 -37 5
-7 -5 -13 -4 -13 2 0 5 6 12 13 15 10 5 10 7 0 12 -7 3 -13 13 -13 21 0 12 -3
13 -14 4 -8 -7 -12 -20 -9 -31 3 -10 1 -26 -5 -36 -9 -16 -10 -15 -17 5 -9 30
-26 16 -20 -17 3 -15 2 -21 -1 -14 -3 6 -10 10 -15 6 -5 -3 -9 5 -9 18 0 18
-2 20 -9 9 -8 -13 -18 -11 -66 12 -52 26 -65 47 -29 47 9 0 14 5 12 12 -2 6
19 30 46 53 53 43 68 71 44 86 -10 7 -10 9 2 9 12 0 15 8 12 35 -3 22 1 40 11
49 10 10 13 24 9 38 l-7 23 -3 -22 c-4 -25 -12 -29 -28 -13 -6 6 -18 4 -34 -7
-13 -10 -44 -19 -67 -20 -50 -4 -56 11 -22 58 11 16 19 37 17 46 -4 19 -38 31
-38 14 0 -6 8 -11 18 -11 14 0 15 -2 2 -10 -20 -13 -43 -13 -35 0 3 6 1 10 -4
10 -6 0 -11 -7 -11 -15 0 -11 -13 -15 -52 -16 -112 -1 -173 -8 -176 -18 -2 -6
-16 -11 -32 -11 -29 0 -70 39 -70 66 0 8 -7 14 -15 14 -8 0 -14 -3 -12 -7 2
-9 -6 -13 -29 -13 -8 0 -12 5 -9 10 3 6 0 10 -8 10 -10 0 -14 12 -13 42 l1 43
55 14 c30 8 58 19 61 24 4 5 14 -15 24 -44 19 -58 42 -93 32 -49 -17 75 -18
98 -6 105 7 5 10 4 6 -2 -4 -6 18 2 49 18 65 34 59 33 78 13 15 -14 16 -13 16
8 0 15 10 29 31 41 38 21 59 22 59 1 0 -10 9 -5 26 15 24 29 52 39 68 24z
m494 -338 c-3 -13 0 -26 6 -29 8 -3 8 -5 0 -5 -6 -1 -17 6 -24 14 -9 11 -9 17
2 29 18 21 21 20 16 -9z m-218 -45 c0 -5 -5 -10 -11 -10 -5 0 -7 5 -4 10 3 6
8 10 11 10 2 0 4 -4 4 -10z m225 -19 c-3 -5 -1 -12 5 -16 13 -8 13 -45 0 -45
-10 0 -30 41 -30 61 0 5 7 9 16 9 8 0 13 -4 9 -9z m-95 -29 c14 -15 33 -31 42
-35 11 -4 15 -12 12 -22 -8 -19 -24 -20 -24 0 0 8 -13 21 -30 30 -16 9 -30 17
-30 19 0 3 -3 11 -6 20 -10 25 9 19 36 -12z m-123 -269 c-3 -10 -5 -2 -5 17 0
19 2 27 5 18 2 -10 2 -26 0 -35z m-97 -11 c0 -10 -6 -19 -14 -19 -8 0 -11 8
-8 19 2 10 8 18 13 18 5 0 9 -8 9 -18z m-1540 -532 c0 -12 -8 -12 -35 0 -18 8
-17 9 8 9 15 1 27 -3 27 -9z m-95 -90 c-3 -5 -11 -10 -16 -10 -6 0 -7 5 -4 10
3 6 11 10 16 10 6 0 7 -4 4 -10z m-77 -27 c-10 -2 -26 -2 -35 0 -10 3 -2 5 17
5 19 0 27 -2 18 -5z m-108 -13 c-78 -17 -104 -20 -95 -11 11 10 51 18 100 18
29 1 28 1 -5 -7z m197 4 c-3 -3 -12 -4 -19 -1 -8 3 -5 6 6 6 11 1 17 -2 13 -5z
m1690 -136 c-3 -8 -6 -5 -6 6 -1 11 2 17 5 13 3 -3 4 -12 1 -19z m13 -257 c0
-6 -4 -13 -10 -16 -5 -3 -10 1 -10 9 0 9 5 16 10 16 6 0 10 -4 10 -9z m-1540
-56 c0 -12 45 -53 86 -77 16 -10 28 -24 28 -33 -1 -8 2 -13 6 -10 4 3 15 -6
24 -20 9 -14 23 -25 30 -25 25 0 66 -59 65 -93 -1 -26 -2 -28 -7 -11 -8 24
-72 82 -72 65 0 -21 -18 -11 -24 14 -4 14 -13 25 -21 25 -20 0 -135 123 -135
144 0 4 -7 14 -15 23 -8 8 -13 19 -10 24 7 10 45 -11 45 -26z m1317 -257 c-3
-8 -6 -5 -6 6 -1 11 2 17 5 13 3 -3 4 -12 1 -19z m-737 -123 c10 -12 10 -15
-2 -15 -8 0 -15 7 -15 15 0 8 1 15 2 15 2 0 8 -7 15 -15z m290 -85 c0 -11 -2
-20 -5 -20 -2 0 -9 9 -15 20 -9 16 -8 20 5 20 8 0 15 -9 15 -20z m31 -7 c13
-16 12 -17 -3 -4 -17 13 -22 21 -14 21 2 0 10 -8 17 -17z m49 -13 c0 -5 -7
-10 -16 -10 -8 0 -12 5 -9 10 3 6 10 10 16 10 5 0 9 -4 9 -10z m-255 -21 c11
-17 -1 -21 -15 -4 -8 9 -8 15 -2 15 6 0 14 -5 17 -11z"/>
<path d="M6447 7474 c-3 -3 -3 -13 0 -21 5 -12 7 -12 14 -1 15 23 4 40 -14 22z"/>
<path d="M5670 7231 c0 -6 5 -13 10 -16 6 -3 10 1 10 9 0 9 -4 16 -10 16 -5 0
-10 -4 -10 -9z"/>
<path d="M5630 7200 c0 -5 5 -10 10 -10 6 0 10 5 10 10 0 6 -4 10 -10 10 -5 0
-10 -4 -10 -10z"/>
<path d="M5732 7041 c-11 -7 -10 -10 3 -15 23 -9 25 -8 25 9 0 17 -9 19 -28 6z"/>
<path d="M5890 5375 c0 -8 7 -15 16 -15 14 0 14 3 4 15 -7 8 -14 15 -16 15 -2
0 -4 -7 -4 -15z"/>
<path d="M6615 4910 c-8 -13 4 -32 16 -25 12 8 12 35 0 35 -6 0 -13 -4 -16
-10z"/>
<path d="M6668 4588 c-2 -13 -7 -22 -12 -20 -5 2 -14 -7 -21 -20 -12 -24 -3
-48 19 -48 6 0 4 5 -4 11 -11 8 -12 12 -2 16 6 2 10 9 6 14 -3 5 0 9 5 9 6 0
11 -6 11 -14 0 -8 3 -17 8 -19 4 -3 7 17 7 44 0 50 -11 67 -17 27z"/>
<path d="M6570 4522 c0 -6 5 -14 10 -17 6 -3 10 -15 10 -26 0 -12 7 -19 18
-18 10 0 12 3 5 6 -7 2 -13 13 -13 23 0 9 -7 23 -15 30 -9 8 -15 9 -15 2z"/>
<path d="M6500 4450 c0 -5 5 -10 10 -10 6 0 10 5 10 10 0 6 -4 10 -10 10 -5 0
-10 -4 -10 -10z"/>
<path d="M5137 8170 c-3 -11 -1 -20 4 -20 5 0 9 9 9 20 0 11 -2 20 -4 20 -2 0
-6 -9 -9 -20z"/>
<path d="M4522 7775 c0 -16 2 -22 5 -12 2 9 2 23 0 30 -3 6 -5 -1 -5 -18z"/>
<path d="M4530 7720 c0 -5 5 -10 10 -10 6 0 10 5 10 10 0 6 -4 10 -10 10 -5 0
-10 -4 -10 -10z"/>
<path d="M4472 7690 c0 -14 2 -19 5 -12 2 6 2 18 0 25 -3 6 -5 1 -5 -13z"/>
<path d="M4511 7694 c0 -11 3 -14 6 -6 3 7 2 16 -1 19 -3 4 -6 -2 -5 -13z"/>
<path d="M7278 7403 c7 -3 16 -2 19 1 4 3 -2 6 -13 5 -11 0 -14 -3 -6 -6z"/>
<path d="M7305 7280 c-3 -5 -1 -10 4 -10 6 0 11 5 11 10 0 6 -2 10 -4 10 -3 0
-8 -4 -11 -10z"/>
<path d="M7393 6406 c-18 -38 -11 -71 12 -62 10 3 15 -1 15 -12 0 -13 2 -14 9
-4 6 10 10 9 14 -7 3 -12 1 -19 -4 -15 -5 3 -9 1 -9 -5 0 -5 12 -16 28 -23 17
-8 28 -23 30 -38 2 -14 9 -30 16 -35 7 -6 16 -21 20 -33 5 -15 13 -21 22 -18
8 3 14 1 14 -4 0 -6 5 -10 10 -10 11 0 2 51 -10 60 -4 3 -33 58 -65 123 -32
66 -63 117 -71 117 -8 0 -22 -15 -31 -34z"/>
<path d="M7345 4033 c22 -9 42 -20 45 -23 3 -4 21 -12 40 -19 46 -15 85 -51
115 -104 30 -50 34 -24 6 32 -21 41 -103 113 -123 110 -7 -2 -31 3 -53 9 -58
17 -77 14 -30 -5z"/>
<path d="M6850 4010 c0 -5 5 -10 11 -10 5 0 7 5 4 10 -3 6 -8 10 -11 10 -2 0
-4 -4 -4 -10z"/>
<path d="M6750 3950 c0 -5 5 -10 10 -10 6 0 10 5 10 10 0 6 -4 10 -10 10 -5 0
-10 -4 -10 -10z"/>
<path d="M8618 3743 c7 -3 16 -2 19 1 4 3 -2 6 -13 5 -11 0 -14 -3 -6 -6z"/>
<path d="M8793 3713 c9 -2 25 -2 35 0 9 3 1 5 -18 5 -19 0 -27 -2 -17 -5z"/>
<path d="M8890 3700 c25 -5 54 -14 65 -19 11 -5 49 -15 85 -21 36 -7 70 -15
75 -20 6 -4 39 -13 75 -20 36 -6 91 -21 123 -32 68 -23 88 -19 25 5 -51 19
-135 41 -273 71 -55 12 -105 25 -112 29 -6 4 -33 9 -60 12 l-48 4 45 -9z"/>
<path d="M6903 3558 c-13 -6 -23 -15 -23 -20 0 -14 20 -9 42 12 24 22 16 25
-19 8z"/>
<path d="M9400 3560 c8 -5 22 -9 30 -9 10 0 8 3 -5 9 -27 12 -43 12 -25 0z"/>
<path d="M9489 3519 c29 -10 59 -23 65 -27 17 -14 46 -22 46 -14 0 11 -129 63
-154 61 -6 0 13 -9 43 -20z"/>
<path d="M6813 3493 c-7 -2 -13 -19 -13 -35 0 -17 3 -28 8 -24 4 4 7 11 7 16
0 4 11 17 25 29 23 19 23 20 5 20 -11 0 -26 -3 -32 -6z"/>
<path d="M7200 3410 c0 -5 5 -10 10 -10 6 0 10 5 10 10 0 6 -4 10 -10 10 -5 0
-10 -4 -10 -10z"/>
<path d="M4715 3380 c-3 -5 -1 -10 4 -10 6 0 11 5 11 10 0 6 -2 10 -4 10 -3 0
-8 -4 -11 -10z"/>
<path d="M6911 3074 c0 -11 3 -14 6 -6 3 7 2 16 -1 19 -3 4 -6 -2 -5 -13z"/>
<path d="M4627 3031 c4 -16 8 -17 18 -8 9 9 10 14 1 19 -19 13 -24 9 -19 -11z"/>
<path d="M6590 3033 c0 -12 5 -25 10 -28 6 -4 8 -16 5 -28 -5 -18 -4 -19 4 -5
8 11 7 25 -4 50 -11 26 -14 29 -15 11z"/>
<path d="M6630 3020 c0 -16 4 -30 8 -30 5 0 7 14 4 30 -2 17 -6 30 -8 30 -2 0
-4 -13 -4 -30z"/>
<path d="M6672 3025 c-1 -16 3 -48 7 -70 8 -35 9 -36 9 -10 1 17 -3 48 -7 70
-8 35 -9 36 -9 10z"/>
<path d="M6707 3030 c-6 -22 2 -60 12 -60 4 0 5 18 3 40 -5 45 -7 49 -15 20z"/>
<path d="M6881 3034 c0 -11 3 -14 6 -6 3 7 2 16 -1 19 -3 4 -6 -2 -5 -13z"/>
<path d="M6782 3010 c0 -14 2 -19 5 -12 2 6 2 18 0 25 -3 6 -5 1 -5 -13z"/>
<path d="M4662 3009 c2 -7 10 -15 17 -17 8 -3 12 1 9 9 -2 7 -10 15 -17 17 -8
3 -12 -1 -9 -9z"/>
<path d="M6487 2948 c7 -97 13 -99 13 -5 0 43 -4 77 -9 77 -5 0 -7 -33 -4 -72z"/>
<path d="M6527 2958 c6 -96 11 -101 12 -15 0 42 -3 77 -7 77 -5 0 -7 -28 -5
-62z"/>
<path d="M6567 3013 c-11 -10 -8 -53 3 -53 6 0 10 14 10 30 0 31 -2 35 -13 23z"/>
<path d="M6740 3006 c0 -9 5 -16 10 -16 6 0 10 4 10 9 0 6 -4 13 -10 16 -5 3
-10 -1 -10 -9z"/>
<path d="M6822 2995 c0 -16 2 -22 5 -12 2 9 2 23 0 30 -3 6 -5 -1 -5 -18z"/>
<path d="M4705 2971 c-3 -5 -1 -12 5 -16 5 -3 10 1 10 9 0 18 -6 21 -15 7z"/>
<path d="M6630 2971 c0 -6 4 -13 10 -16 6 -3 7 1 4 9 -7 18 -14 21 -14 7z"/>
<path d="M6721 2944 c0 -11 3 -14 6 -6 3 7 2 16 -1 19 -3 4 -6 -2 -5 -13z"/>
<path d="M2826 2924 c-4 -12 -15 -32 -26 -44 -11 -13 -20 -28 -20 -34 0 -5 14
9 31 32 17 23 29 48 26 54 -2 8 -7 4 -11 -8z"/>
<path d="M6451 2844 c0 -11 3 -14 6 -6 3 7 2 16 -1 19 -3 4 -6 -2 -5 -13z"/>
<path d="M2757 2811 c-4 -17 -3 -21 5 -13 5 5 8 16 6 23 -3 8 -7 3 -11 -10z"/>
<path d="M2714 2733 c-10 -26 -21 -52 -23 -58 -2 -5 3 -3 11 5 16 17 42 89 35
96 -2 2 -13 -17 -23 -43z"/>
<path d="M6250 2730 c0 -5 5 -10 10 -10 6 0 10 5 10 10 0 6 -4 10 -10 10 -5 0
-10 -4 -10 -10z"/>
<path d="M6295 2730 c-3 -5 -1 -10 4 -10 6 0 11 5 11 10 0 6 -2 10 -4 10 -3 0
-8 -4 -11 -10z"/>
<path d="M6330 2730 c-12 -8 -11 -10 8 -10 12 0 22 5 22 10 0 13 -11 13 -30 0z"/>
<path d="M3390 2682 c0 -6 5 -14 11 -17 6 -4 8 -13 5 -21 -3 -7 -1 -16 4 -19
14 -9 12 -79 -2 -93 -9 -9 -7 -12 10 -12 12 0 22 -4 22 -10 0 -5 -5 -10 -11
-10 -8 0 -8 -4 -1 -13 6 -7 13 -35 16 -62 10 -83 17 -125 24 -129 11 -7 7
-139 -6 -162 -6 -11 -8 -30 -5 -42 3 -12 2 -39 -2 -59 -6 -32 -9 -35 -15 -18
-7 15 -9 16 -9 4 -1 -11 -13 -19 -36 -23 -38 -8 -44 -22 -17 -42 16 -13 16
-13 -2 -14 -12 0 -16 -5 -12 -15 3 -8 -2 -21 -10 -29 -13 -14 -12 -16 11 -22
14 -3 25 -13 25 -21 0 -10 -6 -13 -17 -9 -10 4 -5 -4 10 -18 23 -21 25 -29 17
-51 -6 -15 -8 -31 -5 -35 7 -11 6 -106 -1 -196 -4 -46 -2 -79 5 -93 8 -14 8
-21 1 -21 -5 0 -10 -8 -10 -17 0 -10 -7 -36 -15 -58 l-14 -40 -1 32 c0 24 -4
31 -15 27 -8 -3 -13 -9 -12 -12 1 -4 -3 -7 -8 -7 -5 0 -9 3 -8 7 2 5 -2 8 -7
8 -6 0 -10 8 -10 18 0 24 -40 58 -50 42 -4 -7 -10 -8 -13 -3 -8 13 21 53 39
53 8 0 14 6 14 14 0 9 -8 12 -26 8 -18 -3 -30 0 -36 12 -5 9 -16 16 -23 16 -8
0 -14 3 -13 8 1 4 -8 29 -20 56 -12 26 -27 66 -32 88 -6 21 -17 41 -25 44 -8
3 -11 12 -9 19 3 7 -1 24 -10 37 -18 28 -69 236 -62 254 3 8 -2 18 -11 22 -12
7 -15 18 -10 46 3 20 2 34 -2 32 -4 -3 -8 12 -9 34 -1 21 3 42 8 45 13 8 12
340 -1 374 -5 13 -12 22 -15 19 -3 -3 -6 -113 -8 -244 -2 -141 -8 -249 -14
-264 -6 -14 -11 -19 -11 -12 -1 7 -8 20 -16 28 -8 9 -15 28 -15 44 0 16 -11
42 -25 58 -14 17 -25 37 -25 46 0 22 -28 76 -39 76 -5 0 -14 14 -20 30 -5 17
-16 36 -23 44 -7 7 -35 47 -62 89 -46 72 -66 92 -66 66 0 -5 -5 -7 -12 -3 -6
4 -8 3 -4 -4 3 -6 -1 -15 -10 -20 -10 -6 -13 -12 -6 -16 10 -6 7 -74 -5 -106
-3 -8 -7 -35 -8 -60 -2 -25 -4 -48 -4 -52 -1 -5 -7 -8 -15 -8 -8 0 -14 -6 -13
-12 1 -34 -4 -49 -14 -42 -8 4 -9 -1 -4 -15 4 -12 2 -28 -5 -36 -7 -8 -9 -26
-5 -44 3 -17 2 -32 -4 -36 -6 -3 -11 -24 -11 -46 0 -25 -7 -46 -20 -59 -11
-11 -15 -22 -9 -26 13 -8 1 -95 -15 -109 -6 -5 -12 -39 -13 -75 -1 -36 -7 -78
-13 -95 -6 -16 -18 -72 -25 -124 -12 -81 -13 -98 -1 -116 10 -14 11 -27 4 -38
-7 -13 -5 -17 7 -17 8 0 15 -5 15 -11 0 -6 7 -17 16 -26 8 -9 12 -23 9 -32 -8
-19 -8 -19 -6 -51 l1 -25 21 25 21 25 -5 -42 c-4 -32 -2 -43 9 -43 10 0 12 -8
8 -29 -5 -23 -2 -32 15 -40 12 -7 21 -17 21 -22 0 -6 11 -20 25 -31 14 -11 25
-28 25 -39 0 -10 4 -19 10 -19 16 0 32 -41 26 -66 -7 -25 -24 -34 -23 -11 2
33 -16 76 -32 75 -35 -3 -51 3 -51 17 0 20 26 19 34 -1 4 -9 9 -14 13 -10 3 3
-2 15 -12 26 -16 17 -20 18 -34 6 -14 -12 -21 -9 -53 26 -31 32 -33 38 -15 33
20 -6 20 -5 -5 19 -33 31 -35 37 -10 30 9 -2 7 1 -5 7 -13 7 -23 19 -23 28 0
22 -33 101 -43 101 -4 0 -7 -3 -6 -7 1 -5 -2 -18 -6 -30 l-7 -23 -20 25 c-10
13 -18 32 -16 42 2 12 -4 19 -19 21 -27 4 -27 2 -8 38 18 34 19 56 5 70 -8 8
-7 19 0 39 7 20 7 31 -1 41 -6 7 -12 36 -13 65 -2 37 -8 54 -21 61 -13 8 -16
7 -11 -1 12 -19 -4 -71 -22 -71 -14 0 -15 -2 -2 -10 12 -8 12 -12 0 -37 -8
-15 -19 -31 -25 -35 -7 -5 -7 -8 0 -8 6 0 11 -12 12 -27 3 -35 2 -178 -1 -218
-2 -16 3 -51 9 -76 7 -26 10 -59 8 -73 -3 -15 3 -39 15 -60 11 -18 23 -48 27
-67 6 -28 6 -31 -7 -18 -8 8 -17 22 -21 31 -3 10 -11 18 -17 18 -12 0 -13 -27
-1 -34 13 -8 10 -55 -5 -84 -13 -26 -4 -52 18 -52 6 0 5 7 -2 15 -17 21 6 20
27 -1 13 -13 14 -17 3 -24 -7 -4 -10 -15 -7 -23 3 -9 0 -18 -7 -20 -9 -4 -12
-24 -10 -71 1 -36 5 -70 8 -75 4 -5 2 -13 -4 -16 -6 -4 -9 -14 -6 -23 3 -10 8
-38 11 -65 3 -26 6 -51 6 -55 4 -21 -3 -32 -19 -32 -14 0 -18 -9 -19 -40 -1
-22 2 -42 7 -45 5 -3 4 -19 -1 -38 -12 -43 -11 -57 4 -57 7 0 22 -19 32 -43
19 -43 44 -69 58 -60 4 3 16 -4 25 -15 10 -11 29 -22 42 -24 17 -2 26 -10 28
-25 2 -13 8 -23 14 -23 6 0 5 -6 -3 -16 -8 -10 -9 -18 -2 -22 5 -4 15 -17 22
-29 10 -19 20 -23 64 -23 49 0 53 2 51 23 -2 37 -16 87 -24 87 -4 0 -7 15 -6
33 1 25 -3 31 -16 29 -13 -2 -18 8 -23 42 -8 51 1 106 18 106 7 0 4 5 -5 11
-24 14 -23 39 2 39 11 0 20 -6 20 -13 0 -8 9 -22 20 -32 23 -21 26 -10 11 43
-6 21 -6 32 0 32 6 0 1 13 -10 29 -12 16 -21 34 -21 41 0 6 -4 8 -10 5 -6 -3
-7 1 -4 10 4 8 1 22 -6 30 -7 9 -10 18 -7 22 9 9 36 -16 63 -59 13 -20 34 -40
46 -43 26 -8 58 -39 58 -55 0 -5 5 -10 11 -10 6 0 9 -7 6 -14 -4 -10 -1 -13 9
-9 10 4 12 0 8 -11 -4 -10 -1 -16 9 -16 8 0 20 -13 26 -30 5 -16 17 -30 25
-30 24 0 19 -28 -6 -41 -14 -8 -18 -14 -10 -17 18 -6 15 -30 -5 -35 -17 -4
-17 -5 0 -6 9 0 17 -5 17 -10 0 -5 14 -12 31 -16 46 -10 99 -44 99 -64 0 -9 5
-22 12 -29 7 -7 8 -12 4 -12 -5 0 -3 -7 4 -15 11 -13 106 -15 745 -15 572 0
734 3 737 12 3 7 -1 40 -8 73 -7 33 -13 77 -14 99 0 26 -10 53 -31 84 -36 54
-63 123 -51 131 4 3 3 17 -4 29 -7 15 -14 20 -18 13 -4 -6 -11 -11 -17 -11
-14 0 -11 22 6 34 14 10 14 14 1 31 -14 20 -15 20 -13 0 2 -17 -3 -19 -33 -17
-19 2 -37 8 -40 12 -3 5 -18 13 -33 19 -15 6 -27 17 -27 25 0 16 -45 66 -60
66 -5 0 -16 -10 -26 -22 -12 -17 -15 -18 -10 -5 9 28 -4 41 -19 20 -15 -20
-13 -21 -30 32 -2 8 -9 15 -16 15 -6 0 -9 -7 -5 -15 3 -8 3 -22 -1 -31 -5 -13
-9 -12 -29 7 -13 12 -24 31 -24 41 0 10 -4 18 -10 18 -5 0 -10 -4 -10 -10 0
-5 -9 -10 -19 -10 -12 0 -23 12 -31 33 -11 27 -14 29 -18 12 -2 -11 -13 -33
-24 -48 -19 -26 -19 -29 -4 -46 12 -13 15 -27 10 -45 -4 -16 -2 -26 5 -26 6 0
11 -4 11 -10 0 -14 -21 -13 -52 2 -25 12 -46 68 -26 68 15 0 8 21 -9 27 -27 9
-62 55 -63 81 0 12 -4 22 -9 22 -5 0 -12 11 -15 25 -4 14 -10 25 -15 25 -5 0
-15 14 -22 32 -10 24 -10 33 -1 36 17 5 15 32 -3 32 -11 0 -15 11 -15 38 0 48
10 59 27 30 12 -21 13 -16 10 45 -3 67 -2 68 20 64 12 -2 20 0 17 4 -3 5 -13
9 -22 9 -25 0 -62 28 -57 43 11 29 10 153 0 164 -7 6 -15 60 -18 120 -4 59 -9
119 -13 133 -10 41 -20 262 -13 306 3 23 1 76 -4 117 -5 42 -6 85 -2 94 5 10
7 23 5 28 -4 17 -10 106 -11 180 -1 39 -9 105 -20 148 -10 43 -15 85 -12 93 3
8 0 14 -6 14 -5 0 -15 19 -21 43 -15 58 -52 147 -61 147 -4 0 -14 3 -23 6 -9
3 -16 1 -16 -4z m-700 -317 c0 -8 8 -16 18 -16 16 -1 16 -2 0 -6 -18 -4 -24
-24 -12 -36 3 -3 8 -32 10 -64 4 -68 18 -151 27 -159 3 -4 2 -15 -3 -25 -7
-12 -6 -20 1 -24 6 -4 8 -13 5 -21 -3 -8 0 -14 5 -14 6 0 9 -9 6 -20 -3 -13 0
-20 9 -20 8 0 14 -4 14 -10 0 -5 -7 -10 -16 -10 -18 0 -14 -36 12 -140 8 -30
14 -61 14 -70 0 -8 6 -27 14 -42 8 -15 17 -42 21 -60 10 -52 45 -171 56 -190
5 -10 9 -25 9 -34 0 -53 100 -202 210 -313 48 -49 99 -136 86 -148 -7 -8 -56
25 -56 38 0 6 -5 7 -11 4 -6 -4 -13 2 -16 14 -3 12 -13 21 -21 21 -9 0 -25 11
-37 25 -11 13 -32 27 -47 31 -24 5 -28 3 -28 -15 0 -16 -6 -21 -25 -21 -18 0
-25 5 -25 20 0 11 -4 20 -9 20 -20 0 -21 -20 -2 -53 13 -23 16 -39 9 -50 -6
-11 -5 -17 2 -17 5 0 10 -6 10 -12 -1 -28 36 -128 48 -133 23 -9 33 5 27 36
-4 18 -3 29 4 29 6 0 11 5 11 11 0 18 -24 4 -37 -22 -12 -23 -13 -23 -13 -2 0
12 5 25 10 28 16 10 12 28 -5 21 -11 -4 -15 2 -15 20 0 14 4 22 10 19 16 -10
12 0 -10 25 -21 24 -27 50 -11 50 5 0 16 3 25 6 12 4 16 0 16 -16 0 -12 11
-31 25 -42 14 -11 25 -25 25 -31 0 -7 17 -25 38 -40 40 -29 53 -67 24 -67 -14
0 -15 -2 -3 -9 20 -13 22 -36 5 -84 -13 -36 -13 -42 1 -49 8 -5 15 -16 15 -23
0 -8 9 -15 19 -15 11 0 23 -4 26 -10 3 -5 -3 -10 -14 -10 -15 0 -21 -6 -21
-22 l0 -22 -20 22 c-11 12 -20 28 -20 36 0 7 -7 16 -15 20 -8 3 -15 15 -15 26
0 16 -7 20 -31 20 l-31 0 26 -32 c32 -40 37 -48 54 -77 15 -26 8 -41 -10 -23
-7 7 -21 12 -33 12 -19 0 -19 -1 3 -18 20 -16 23 -24 17 -55 -6 -28 -4 -37 6
-37 12 0 11 -2 0 -9 -11 -7 -8 -15 16 -38 28 -26 53 -73 38 -73 -3 0 -17 12
-31 27 -13 16 -32 37 -42 48 -30 32 -33 42 -39 107 -5 68 -17 108 -32 108 -6
0 -8 6 -5 14 3 8 -4 24 -16 36 -24 24 -22 46 4 44 22 -2 20 5 -9 28 -16 12
-25 29 -25 48 0 16 -7 30 -15 34 -8 3 -15 12 -15 20 0 8 -8 29 -17 48 -31 62
-33 68 -33 88 0 12 -12 46 -26 77 -19 39 -26 71 -26 108 0 37 -4 55 -14 59 -8
3 -14 11 -14 19 0 7 -6 19 -12 25 -7 7 -13 35 -14 61 0 27 -10 69 -22 95 -12
25 -22 53 -22 61 0 9 -6 28 -14 43 -19 38 -27 92 -32 207 -2 55 -6 120 -8 145
-3 25 -2 51 3 58 4 7 5 33 1 57 -4 25 -4 45 -1 45 3 0 6 39 7 88 2 136 7 182
23 182 8 0 11 6 7 15 -3 9 0 15 9 15 8 0 15 -7 15 -15z m740 -769 c0 -3 -4 -8
-10 -11 -5 -3 -10 -1 -10 4 0 6 5 11 10 11 6 0 10 -2 10 -4z m-940 -560 c0 -3
-4 -8 -10 -11 -5 -3 -10 -1 -10 4 0 6 5 11 10 11 6 0 10 -2 10 -4z m39 -103
c9 -19 9 -29 2 -31 -6 -2 -11 -11 -11 -19 0 -11 6 -14 20 -10 18 4 20 2 14
-16 -3 -12 -3 -19 1 -15 11 10 104 -93 98 -109 -5 -12 21 -77 37 -93 19 -19
42 -74 32 -78 -6 -2 2 -18 20 -38 18 -19 38 -32 45 -30 7 3 17 -3 23 -14 6
-11 16 -17 24 -14 15 6 76 -65 76 -89 0 -8 7 -17 15 -21 8 -3 15 -12 15 -19 0
-8 9 -22 20 -32 11 -10 20 -22 20 -27 0 -13 -44 2 -53 19 -5 8 -19 18 -32 23
-16 6 -25 19 -27 37 -2 15 -7 28 -13 29 -23 2 -45 17 -45 31 0 8 -4 11 -10 8
-5 -3 -10 1 -10 9 0 9 -7 16 -15 16 -8 0 -29 15 -47 34 -18 18 -50 39 -70 45
-27 9 -42 23 -58 53 -11 22 -19 42 -17 45 3 2 -5 14 -17 27 -64 67 -80 95 -80
144 -1 22 3 31 12 27 18 -7 14 23 -5 34 -15 8 -15 11 -3 26 10 13 11 21 3 35
-9 13 -9 20 0 29 16 16 23 14 36 -16z m181 2 c7 -8 9 -23 5 -32 -6 -16 -8 -16
-26 6 -18 22 -18 41 0 41 5 0 14 -7 21 -15z m1210 -325 c0 -5 -4 -10 -9 -10
-6 0 -13 5 -16 10 -3 6 1 10 9 10 9 0 16 -4 16 -10z m-776 -35 c3 -9 0 -15 -9
-15 -8 0 -15 7 -15 15 0 8 4 15 9 15 5 0 11 -7 15 -15z m31 -35 c3 -6 -5 -10
-19 -10 -14 0 -28 5 -31 10 -3 6 5 10 19 10 14 0 28 -4 31 -10z m-85 -30 c0
-5 -5 -10 -11 -10 -5 0 -7 5 -4 10 3 6 8 10 11 10 2 0 4 -4 4 -10z m81 -1 c17
-9 18 -13 8 -26 -11 -12 -10 -17 4 -28 24 -17 21 -25 -9 -25 -23 0 -25 3 -20
25 5 18 1 27 -15 36 -17 9 -19 13 -8 20 18 11 17 11 40 -2z m-506 -9 c3 -5 2
-10 -4 -10 -5 0 -13 5 -16 10 -3 6 -2 10 4 10 5 0 13 -4 16 -10z m1175 -37 c0
-5 -7 -17 -15 -27 -14 -19 -15 -19 -15 7 0 17 5 27 15 27 8 0 15 -3 15 -7z
m-1300 -53 c0 -5 -5 -10 -11 -10 -5 0 -7 5 -4 10 3 6 8 10 11 10 2 0 4 -4 4
-10z m650 -64 c0 -8 -4 -18 -10 -21 -5 -3 -10 3 -10 14 0 12 5 21 10 21 6 0
10 -6 10 -14z m-40 -71 c0 -3 -9 -5 -20 -5 -11 0 -20 7 -20 15 0 13 4 14 20 5
11 -6 20 -13 20 -15z m-306 -69 c-6 -27 -18 -33 -29 -16 -3 6 1 13 9 16 9 3
16 13 16 22 0 8 2 13 5 10 4 -3 3 -17 -1 -32z m296 24 c0 -5 -4 -10 -9 -10 -6
0 -13 5 -16 10 -3 6 1 10 9 10 9 0 16 -4 16 -10z m-34 -64 c8 -8 14 -27 13
-43 0 -27 -1 -27 -9 -5 -5 12 -14 22 -20 22 -5 0 -10 9 -10 20 0 24 6 25 26 6z
m-201 -6 c3 -5 1 -10 -4 -10 -6 0 -11 5 -11 10 0 6 2 10 4 10 3 0 8 -4 11 -10z"/>
<path d="M2781 1414 c0 -11 3 -14 6 -6 3 7 2 16 -1 19 -3 4 -6 -2 -5 -13z"/>
<path d="M2960 790 c0 -5 7 -7 15 -4 8 4 15 8 15 10 0 2 -7 4 -15 4 -8 0 -15
-4 -15 -10z"/>
<path d="M2984 745 c26 -19 56 -19 56 0 0 11 -11 15 -37 15 -36 -1 -37 -2 -19
-15z"/>
<path d="M2507 786 c-8 -20 14 -65 35 -72 10 -3 25 -12 33 -21 25 -24 30 -7 6
18 -12 13 -21 19 -21 15 0 -5 -7 -3 -15 4 -8 7 -15 25 -15 41 0 30 -14 39 -23
15z"/>
<path d="M2640 659 c0 -20 16 -43 23 -32 3 4 -1 17 -9 28 -10 13 -14 15 -14 4z"/>
<path d="M5816 2293 c4 -16 11 -29 16 -31 4 -2 8 -10 8 -17 0 -8 9 -17 21 -20
12 -4 18 -12 15 -21 -6 -15 13 -54 26 -54 9 0 97 -89 116 -117 8 -13 21 -23
28 -23 8 0 14 -5 14 -11 0 -6 14 -22 30 -36 17 -13 30 -31 30 -39 0 -7 9 -18
20 -24 10 -6 27 -26 36 -45 9 -19 20 -35 25 -35 5 0 9 -6 9 -14 0 -24 27 -69
33 -54 4 11 6 11 6 0 1 -8 11 -22 23 -31 14 -12 21 -28 20 -49 0 -22 4 -32 14
-32 8 0 14 -9 14 -20 0 -11 -5 -20 -10 -20 -6 0 -5 -8 2 -20 7 -11 21 -20 30
-20 10 0 18 -6 18 -14 0 -8 3 -21 6 -30 5 -12 0 -16 -19 -16 -17 0 -26 7 -30
21 -4 13 -10 18 -18 13 -9 -5 -2 -16 22 -38 19 -16 33 -36 31 -43 -2 -7 3 -13
10 -13 18 0 40 -53 32 -75 -5 -13 -4 -16 4 -11 9 5 12 -10 12 -56 0 -44 -3
-59 -10 -48 -8 12 -10 10 -10 -8 0 -13 4 -21 9 -17 5 3 12 1 16 -5 4 -6 10 -8
15 -5 4 3 13 -2 19 -9 8 -10 9 -16 1 -21 -19 -12 -11 -27 11 -20 19 6 21 4 17
-18 -3 -17 0 -28 9 -31 21 -9 22 -8 17 17 -2 12 3 3 13 -20 18 -45 33 -56 33
-25 0 10 3 13 8 6 4 -6 18 -15 31 -19 l25 -8 -23 -18 -23 -19 36 0 c20 0 36
-4 36 -10 0 -5 -9 -10 -20 -10 -11 0 -20 -4 -20 -10 0 -5 9 -10 20 -10 22 0
27 -16 8 -23 -10 -4 -10 -7 0 -18 15 -17 16 -91 0 -107 -9 -9 -9 -12 0 -12 8
0 12 -17 12 -47 0 -45 18 -114 33 -129 4 -4 7 -21 7 -38 1 -34 33 -102 47 -99
4 2 16 0 26 -3 10 -3 23 -1 30 4 8 7 16 5 25 -4 7 -8 9 -14 3 -14 -5 0 -12 -8
-15 -17 -4 -10 -4 -15 -1 -11 4 3 19 2 34 -3 26 -9 27 -11 28 -95 0 -50 5 -90
12 -97 6 -6 11 -22 11 -35 0 -19 3 -22 13 -13 11 8 14 4 14 -22 1 -30 31 -199
37 -204 2 -2 152 -2 335 -1 l331 3 -45 35 c-24 19 -44 39 -45 43 0 15 -72 77
-89 77 -16 0 -53 20 -38 20 4 0 -4 12 -20 26 -21 19 -24 27 -14 33 11 7 11 9
0 13 -10 4 -11 8 -3 19 16 21 16 70 0 94 -8 12 -18 38 -21 58 -4 20 -12 34
-17 31 -5 -4 -8 -17 -5 -30 5 -30 -9 -31 -19 -1 -3 12 -16 31 -27 41 l-20 20
21 9 c12 6 22 16 22 22 0 7 8 16 17 19 15 6 15 8 3 16 -11 7 -7 9 15 7 34 -2
35 -1 35 48 0 27 -3 33 -15 29 -11 -5 -13 -2 -9 11 5 12 -1 24 -17 36 -20 16
-22 20 -9 29 10 6 3 8 -25 3 -33 -5 -38 -3 -27 8 16 18 15 29 -3 29 -8 0 -15
5 -15 10 0 13 6 13 31 0 12 -7 19 -7 19 -1 0 12 -7 16 -42 25 -21 5 -28 3 -28
-9 0 -17 -9 -19 -28 -6 -8 4 -12 17 -10 27 2 13 -3 19 -17 20 -41 2 -45 5 -45
27 0 15 6 23 20 24 11 1 22 -2 25 -8 13 -20 25 -8 23 22 -3 36 26 65 41 40 6
-10 10 -10 16 -1 9 15 0 23 -43 35 -29 8 -37 17 -45 44 -4 19 -15 40 -23 48
-12 13 -14 12 -14 -4 -1 -17 -1 -17 -14 0 -7 9 -18 17 -25 17 -15 0 -14 -33 1
-48 9 -9 8 -12 -5 -12 -9 0 -17 7 -17 15 0 8 -4 15 -10 15 -5 0 -10 6 -10 13
0 15 -47 38 -65 30 -11 -3 -14 3 -12 26 1 17 6 31 11 31 4 0 6 9 3 20 -4 15 0
20 14 20 12 0 19 -7 19 -19 0 -10 9 -21 20 -24 28 -7 35 10 10 25 -11 7 -20
21 -20 30 0 10 -6 18 -13 18 -8 0 -22 9 -32 20 -12 13 -25 18 -40 14 -13 -3
-27 1 -34 10 -7 9 -18 13 -23 10 -7 -5 -7 -1 -1 11 6 10 8 26 6 36 -5 17 6 24
30 20 4 -1 10 6 13 14 4 8 12 15 20 15 8 0 14 4 14 9 0 15 -18 23 -25 11 -10
-17 -25 -11 -25 10 0 12 -9 22 -24 26 -14 3 -27 12 -30 21 -4 9 -13 12 -26 8
-12 -4 -20 -2 -20 5 0 6 -4 9 -9 6 -4 -3 -19 6 -31 19 -13 14 -34 25 -47 25
-13 0 -23 5 -23 11 0 6 -7 9 -15 5 -25 -9 -43 3 -37 27 3 12 1 19 -3 14 -11
-10 -70 83 -66 106 1 11 -7 21 -24 27 -14 5 -28 17 -32 27 -8 21 -100 113
-112 113 -5 0 -55 44 -111 98 -55 53 -114 108 -129 122 -16 14 -46 46 -67 73
-21 26 -46 47 -55 47 -9 0 -24 11 -33 25 -9 14 -26 25 -39 25 -21 0 -63 20
-43 20 5 0 -13 15 -40 32 -27 18 -55 38 -62 45 -20 19 -23 16 -16 -14z m1104
-1093 c12 -7 12 -12 -4 -29 -11 -12 -25 -21 -31 -21 -13 0 -26 45 -17 55 8 8
35 6 52 -5z m231 -293 c-1 -12 -15 -9 -19 4 -3 6 1 10 8 8 6 -3 11 -8 11 -12z
m-191 -37 c0 -5 -4 -10 -9 -10 -6 0 -13 5 -16 10 -3 6 1 10 9 10 9 0 16 -4 16
-10z m0 -46 c0 -8 -5 -12 -10 -9 -6 4 -8 11 -5 16 9 14 15 11 15 -7z m275
-104 c8 -13 -25 -13 -45 0 -12 8 -9 10 12 10 15 0 30 -4 33 -10z m65 -40 c0
-5 -4 -10 -10 -10 -5 0 -10 5 -10 10 0 6 5 10 10 10 6 0 10 -4 10 -10z m-48
-162 c-9 -9 -15 -9 -24 0 -9 9 -7 12 12 12 19 0 21 -3 12 -12z"/>
<path d="M2567 2290 c-3 -11 -1 -23 4 -26 5 -3 9 6 9 20 0 31 -6 34 -13 6z"/>
<path d="M9425 2300 c-3 -5 -2 -15 1 -24 3 -9 1 -16 -5 -16 -6 0 -9 -15 -6
-37 5 -49 15 -363 16 -518 1 -149 -12 -776 -16 -830 -2 -22 -7 -228 -11 -457
l-7 -418 101 0 102 0 -1 898 c0 791 -2 892 -15 858 -8 -22 -12 -41 -9 -44 3
-3 0 -11 -6 -18 -6 -7 -14 -112 -20 -251 -5 -131 -16 -285 -25 -343 -9 -58
-19 -210 -23 -339 -5 -169 -10 -236 -19 -239 -7 -2 -12 -12 -12 -22 0 -10 -4
-22 -10 -25 -6 -4 -8 5 -4 22 2 15 -1 63 -9 106 -7 42 -11 77 -7 77 5 0 12 92
13 187 0 18 4 30 9 27 4 -3 8 6 8 20 0 13 3 32 7 42 5 13 3 15 -7 9 -10 -6
-12 -4 -7 9 4 10 7 32 8 49 0 26 2 28 8 12 10 -25 19 74 26 295 11 316 12 501
3 506 -4 3 -5 10 -2 16 13 20 3 181 -13 215 -8 18 -13 44 -10 58 2 14 0 28 -4
31 -5 3 -9 27 -9 55 0 37 -4 49 -15 49 -20 0 -19 16 1 24 9 4 14 9 10 13 -10
10 -35 12 -41 3z"/>
<path d="M3420 2130 c0 -5 5 -10 10 -10 6 0 10 5 10 10 0 6 -4 10 -10 10 -5 0
-10 -4 -10 -10z"/>
<path d="M3361 2094 c0 -11 3 -14 6 -6 3 7 2 16 -1 19 -3 4 -6 -2 -5 -13z"/>
<path d="M3400 2069 c0 -5 5 -7 10 -4 6 3 10 8 10 11 0 2 -4 4 -10 4 -5 0 -10
-5 -10 -11z"/>
<path d="M2434 1958 c4 -28 20 -47 39 -48 4 0 7 5 7 10 0 6 -4 10 -10 10 -14
0 -12 27 3 33 7 3 5 6 -5 6 -10 1 -18 6 -18 11 0 6 -5 10 -11 10 -6 0 -8 -13
-5 -32z"/>
<path d="M3340 1937 c0 -15 4 -27 8 -27 10 0 9 36 -1 46 -4 4 -7 -5 -7 -19z"/>
<path d="M2395 1810 c0 -24 3 -29 18 -24 13 4 17 0 17 -16 0 -16 -5 -20 -15
-16 -9 3 -15 0 -15 -9 0 -19 36 -20 43 -2 7 19 -4 67 -16 67 -5 0 -15 7 -21
15 -9 13 -11 10 -11 -15z"/>
<path d="M3360 1770 c0 -5 5 -10 11 -10 5 0 7 5 4 10 -3 6 -8 10 -11 10 -2 0
-4 -4 -4 -10z"/>
<path d="M2400 1700 c0 -5 7 -10 15 -10 8 0 15 5 15 10 0 6 -7 10 -15 10 -8 0
-15 -4 -15 -10z"/>
<path d="M3960 1660 c0 -5 7 -10 16 -10 8 0 12 5 9 10 -3 6 -10 10 -16 10 -5
0 -9 -4 -9 -10z"/>
<path d="M2410 1631 c0 -5 5 -13 10 -16 6 -3 10 -2 10 4 0 5 -4 13 -10 16 -5
3 -10 2 -10 -4z"/>
<path d="M3991 1624 c0 -11 3 -14 6 -6 3 7 2 16 -1 19 -3 4 -6 -2 -5 -13z"/>
<path d="M4057 1499 c-4 -16 -3 -18 9 -8 16 13 19 29 5 29 -5 0 -11 -9 -14
-21z"/>
<path d="M3360 1432 c0 -7 -10 -12 -22 -12 -17 0 -19 -3 -10 -12 10 -9 16 -8
29 5 9 9 14 20 10 23 -4 4 -7 2 -7 -4z"/>
<path d="M6381 1321 c-8 -5 -11 -16 -8 -25 10 -25 27 -19 27 9 0 28 0 28 -19
16z"/>
<path d="M2106 1273 c-7 -23 2 -53 15 -53 11 0 11 41 0 59 -7 11 -10 10 -15
-6z"/>
<path d="M6900 1275 c-11 -13 -8 -15 13 -15 30 0 44 15 21 24 -21 8 -20 8 -34
-9z"/>
<path d="M4260 1271 c0 -13 29 -35 37 -28 7 8 -15 37 -28 37 -5 0 -9 -4 -9 -9z"/>
<path d="M4311 1214 c0 -11 3 -14 6 -6 3 7 2 16 -1 19 -3 4 -6 -2 -5 -13z"/>
<path d="M2110 1200 c0 -5 5 -10 11 -10 5 0 7 5 4 10 -3 6 -8 10 -11 10 -2 0
-4 -4 -4 -10z"/>
<path d="M4260 1196 c0 -9 7 -12 20 -9 11 3 17 9 14 14 -8 14 -34 10 -34 -5z"/>
<path d="M2064 1165 c-9 -50 0 -53 13 -5 5 22 7 40 2 40 -4 0 -11 -16 -15 -35z"/>
<path d="M7070 1170 c0 -5 5 -10 10 -10 6 0 10 5 10 10 0 6 -4 10 -10 10 -5 0
-10 -4 -10 -10z"/>
<path d="M7080 1139 c0 -5 9 -9 20 -9 11 0 20 2 20 4 0 2 -9 6 -20 9 -11 3
-20 1 -20 -4z"/>
<path d="M2018 1118 c-4 -8 -1 -21 5 -27 8 -8 5 -11 -11 -11 -12 0 -22 -4 -22
-9 0 -5 9 -7 20 -4 14 4 20 0 20 -11 0 -12 -7 -15 -25 -12 -17 3 -25 0 -25
-10 0 -8 4 -14 10 -14 15 0 60 -42 60 -56 0 -7 -8 -20 -17 -30 -9 -9 -18 -26
-18 -37 -1 -12 -7 -23 -13 -25 -7 -2 -12 -12 -12 -23 0 -10 -7 -19 -15 -19 -8
0 -15 -8 -15 -17 0 -10 -3 -29 -7 -43 l-6 -25 22 19 c19 18 32 22 79 28 8 1
11 9 8 21 -3 11 0 30 6 41 15 28 19 118 6 133 -7 9 -6 15 6 19 14 5 14 9 1 34
-8 16 -15 38 -15 50 0 11 -6 20 -14 20 -8 0 -16 5 -18 12 -3 8 -6 7 -10 -4z"/>
<path d="M7127 1124 c-11 -11 3 -24 18 -18 8 4 12 10 9 15 -6 11 -18 12 -27 3z"/>
<path d="M2205 1110 c3 -5 8 -10 11 -10 2 0 4 5 4 10 0 6 -5 10 -11 10 -5 0
-7 -4 -4 -10z"/>
<path d="M3640 1106 c0 -9 7 -16 16 -16 17 0 14 22 -4 28 -7 2 -12 -3 -12 -12z"/>
<path d="M4390 1106 c0 -9 5 -16 10 -16 6 0 10 4 10 9 0 6 -4 13 -10 16 -5 3
-10 -1 -10 -9z"/>
<path d="M4302 1098 c3 -7 15 -15 27 -16 15 -3 22 1 19 9 -2 7 -14 14 -27 16
-15 2 -21 -1 -19 -9z"/>
<path d="M7288 1043 c7 -3 16 -2 19 1 4 3 -2 6 -13 5 -11 0 -14 -3 -6 -6z"/>
<path d="M4370 1024 c0 -14 3 -14 15 -4 8 7 15 14 15 16 0 2 -7 4 -15 4 -8 0
-15 -7 -15 -16z"/>
<path d="M4400 1012 c0 -4 9 -13 20 -19 20 -13 37 -2 25 17 -7 12 -45 14 -45
2z"/>
<path d="M7200 976 c0 -9 5 -16 10 -16 6 0 10 4 10 9 0 6 -4 13 -10 16 -5 3
-10 -1 -10 -9z"/>
<path d="M1975 969 c-4 -6 -3 -15 3 -21 6 -6 11 -4 15 6 7 18 -9 31 -18 15z"/>
<path d="M4275 950 c3 -5 8 -10 11 -10 2 0 4 5 4 10 0 6 -5 10 -11 10 -5 0 -7
-4 -4 -10z"/>
<path d="M4403 918 c1 -21 5 -38 10 -38 4 0 5 5 1 12 -4 7 -3 8 4 4 19 -12 14
-36 -8 -36 -11 0 -20 -6 -20 -14 0 -10 7 -12 22 -8 19 5 21 2 15 -28 -4 -20
-2 -38 5 -47 8 -10 8 -17 0 -25 -9 -9 -18 -6 -38 13 -25 23 -26 24 -40 5 -19
-26 -18 -40 2 -32 30 12 64 -4 64 -31 0 -20 -3 -23 -22 -18 -17 6 -20 4 -15
-9 6 -15 -13 -22 -50 -17 -7 1 -13 -3 -13 -9 0 -5 5 -10 10 -10 6 0 10 -9 10
-20 0 -13 6 -19 18 -18 35 3 52 -2 52 -16 0 -9 -11 -12 -35 -10 -37 2 -47 -12
-17 -24 9 -4 18 -18 20 -32 1 -14 7 -26 12 -28 5 -2 7 -27 5 -55 -4 -38 -2
-45 4 -27 8 22 9 23 10 4 1 -29 21 -84 31 -84 12 0 80 -67 80 -79 0 -10 14
-15 33 -12 4 0 7 -5 7 -12 0 -22 25 -67 35 -64 6 2 11 18 13 36 3 24 0 31 -9
26 -7 -5 -17 -2 -23 6 -6 8 -20 19 -31 25 -25 14 -32 52 -11 60 12 5 9 11 -14
31 -16 13 -29 27 -29 31 1 4 0 10 -1 15 -7 22 -4 33 15 44 20 12 20 13 -2 19
-26 7 -31 24 -8 24 17 0 20 41 6 69 -7 12 -6 26 2 42 8 15 10 40 5 69 -3 25
-7 63 -7 85 -1 23 -9 57 -19 77 -16 31 -17 38 -5 54 15 20 10 59 -10 78 -7 6
-24 11 -39 11 -24 0 -27 -3 -25 -37z m58 -151 c-13 -13 -26 -3 -16 12 3 6 11
8 17 5 6 -4 6 -10 -1 -17z m19 -143 c0 -8 -5 -12 -10 -9 -6 4 -8 11 -5 16 9
14 15 11 15 -7z"/>
<path d="M6508 953 c7 -3 16 -2 19 1 4 3 -2 6 -13 5 -11 0 -14 -3 -6 -6z"/>
<path d="M4283 904 c-6 -13 -8 -24 -4 -24 10 0 31 39 23 44 -4 2 -12 -7 -19
-20z"/>
<path d="M7275 920 c3 -5 8 -10 11 -10 2 0 4 5 4 10 0 6 -5 10 -11 10 -5 0 -7
-4 -4 -10z"/>
<path d="M1951 913 c-1 -7 -8 -13 -16 -13 -17 0 -20 -27 -5 -50 8 -12 10 -11
10 6 0 11 5 25 11 31 6 6 9 17 6 25 -4 9 -6 10 -6 1z"/>
<path d="M7200 880 c0 -5 5 -10 11 -10 5 0 7 5 4 10 -3 6 -8 10 -11 10 -2 0
-4 -4 -4 -10z"/>
<path d="M4280 800 c0 -5 5 -10 10 -10 6 0 10 5 10 10 0 6 -4 10 -10 10 -5 0
-10 -4 -10 -10z"/>
<path d="M2034 762 c-11 -7 -28 -42 -26 -53 1 -4 -3 -22 -8 -40 -10 -35 -4
-73 10 -64 4 2 11 31 15 62 4 32 11 63 17 70 13 16 7 35 -8 25z"/>
<path d="M1886 735 c-10 -15 -22 -22 -31 -19 -16 6 -19 -4 -9 -30 3 -9 10 -13
15 -10 6 3 17 0 26 -8 15 -12 16 -10 9 15 -6 26 8 40 17 15 2 -7 4 2 5 19 1
42 -12 49 -32 18z"/>
<path d="M4304 695 c3 -8 1 -15 -5 -15 -6 0 -7 -5 -4 -11 4 -6 13 -8 21 -5 7
3 16 0 20 -5 4 -6 16 -2 30 12 28 26 31 39 9 39 -8 0 -15 -7 -15 -15 0 -8 -5
-15 -10 -15 -6 0 -13 7 -16 15 -4 8 -13 15 -21 15 -9 0 -13 -6 -9 -15z"/>
<path d="M7747 662 c-4 -6 0 -17 8 -25 8 -9 15 -20 15 -26 0 -6 8 -11 18 -11
11 0 26 -18 42 -52 14 -29 25 -57 25 -63 0 -5 13 -16 28 -23 16 -8 33 -25 40
-39 14 -31 69 -88 80 -85 5 1 11 -7 14 -18 3 -11 11 -20 19 -20 8 0 11 6 8 15
-4 10 0 15 11 15 9 0 13 -5 10 -10 -3 -6 0 -17 9 -25 20 -21 29 -19 21 5 -4
11 -2 20 4 20 20 0 26 -5 23 -18 -2 -7 8 -12 28 -12 36 0 39 12 6 33 -14 9
-29 35 -37 63 -8 25 -24 54 -36 64 -13 10 -23 22 -23 27 0 6 -9 18 -20 28 -11
10 -20 26 -20 35 0 10 -7 21 -16 24 -13 5 -15 1 -11 -21 4 -16 4 -22 1 -15 -7
14 -34 16 -34 2 0 -15 -37 -12 -70 5 -17 9 -30 24 -30 34 0 11 -6 21 -12 24
-7 2 -11 7 -8 10 3 4 19 -1 35 -9 17 -9 40 -12 57 -9 32 7 36 -2 11 -21 -12
-9 -14 -13 -5 -14 20 0 45 29 38 45 -3 8 -16 15 -28 16 -13 0 -39 2 -58 5 -19
2 -48 5 -65 7 -17 1 -39 13 -51 26 -13 15 -23 20 -27 13z m238 -192 c-3 -5
-11 -10 -16 -10 -6 0 -7 5 -4 10 3 6 11 10 16 10 6 0 7 -4 4 -10z m60 -100 c3
-5 -1 -10 -10 -10 -9 0 -13 5 -10 10 3 6 8 10 10 10 2 0 7 -4 10 -10z m65 -10
c0 -5 -4 -10 -10 -10 -5 0 -10 5 -10 10 0 6 5 10 10 10 6 0 10 -4 10 -10z"/>
<path d="M4010 646 c0 -2 7 -9 15 -16 12 -10 15 -10 15 4 0 9 -7 16 -15 16 -8
0 -15 -2 -15 -4z"/>
<path d="M4976 625 c4 -8 8 -15 10 -15 2 0 4 7 4 15 0 8 -4 15 -10 15 -5 0 -7
-7 -4 -15z"/>
<path d="M5415 620 c-3 -6 1 -13 9 -16 9 -3 16 -17 16 -30 0 -16 -4 -22 -14
-18 -9 3 -17 -3 -21 -16 -6 -20 -8 -20 -24 -6 -25 22 -51 20 -51 -4 0 -15 -7
-20 -25 -20 -14 0 -25 5 -25 12 0 6 -7 4 -18 -5 -11 -10 -36 -17 -60 -17 -42
0 -51 -10 -33 -38 8 -14 116 -33 137 -25 24 9 27 -20 5 -38 -21 -17 -23 -17
-41 1 -33 33 -54 7 -42 -52 4 -18 52 -32 102 -31 l55 2 -38 -16 c-28 -12 -36
-20 -32 -34 7 -22 -26 -64 -37 -47 -4 7 -28 13 -55 13 -50 0 -49 -2 -69 74 -3
11 -7 11 -19 1 -10 -8 -15 -9 -15 -2 0 6 4 13 9 17 14 8 -8 66 -33 86 -25 21
-56 13 -56 -15 -1 -48 -30 62 -30 115 0 43 -5 60 -20 74 -19 18 -21 17 -40 -5
-14 -17 -17 -27 -9 -36 7 -8 7 -14 -2 -19 -8 -6 -8 -9 1 -15 15 -9 22 -81 10
-100 -6 -9 -11 -1 -15 26 -10 62 -17 73 -25 44 -8 -23 -12 -21 -14 7 -2 19
-68 73 -90 74 -21 0 -21 1 -1 9 18 7 17 8 -10 14 -81 19 -78 19 -60 -8 9 -14
14 -30 10 -36 -10 -16 -45 -12 -45 5 0 8 -7 15 -15 15 -21 0 -19 -14 10 -48
18 -22 21 -32 13 -40 -9 -9 -9 -15 0 -24 14 -14 17 -78 4 -78 -5 0 -14 -11
-20 -25 -8 -18 -8 -25 -1 -25 7 0 9 -12 7 -30 -3 -19 0 -30 8 -30 19 0 22 -45
5 -66 -9 -10 -24 -19 -33 -19 -10 0 -18 -4 -18 -10 1 -5 14 -9 30 -7 32 3 38
-6 18 -26 -10 -10 -10 -17 -1 -31 9 -14 9 -21 0 -30 -6 -6 -7 -11 -3 -11 5 0
3 -7 -4 -15 -27 -33 24 -38 93 -10 13 5 17 2 17 -14 0 -21 4 -21 180 -21 147
0 180 3 180 14 0 7 -9 16 -19 19 -16 4 -20 13 -19 46 0 27 5 41 13 41 7 0 15
5 17 12 3 7 13 5 32 -7 28 -19 28 -19 6 -27 -15 -5 -20 -13 -16 -24 3 -9 6
-25 6 -35 0 -11 4 -18 9 -15 4 3 17 -1 27 -9 15 -12 71 -14 296 -15 l276 0
-21 40 c-17 30 -30 41 -55 46 -21 4 -31 11 -28 19 3 8 -2 16 -10 19 -27 11
-36 6 -31 -14 3 -11 2 -22 -1 -23 -4 -2 -36 4 -72 14 -36 9 -58 18 -49 18 9 1
19 8 23 16 3 8 14 15 25 15 11 0 26 6 33 13 7 6 31 18 53 26 22 7 47 19 55 26
8 7 22 13 30 13 64 3 111 10 117 15 3 4 -2 16 -11 26 -17 19 -17 20 6 23 23 4
23 5 -4 16 -16 6 -28 14 -28 17 0 4 6 3 13 0 6 -4 -10 14 -36 39 -27 25 -52
46 -58 46 -5 0 -9 5 -9 11 0 14 -20 33 -44 42 -16 6 -17 5 -6 -8 17 -20 6 -19
-28 3 -44 28 -62 51 -62 77 0 19 -5 25 -23 25 -13 0 -28 5 -35 12 -7 7 -31 11
-53 9 -28 -2 -39 1 -35 8 4 6 2 11 -3 11 -6 0 -11 7 -11 15 0 17 -16 20 -25 5z
m-595 -115 c0 -8 -4 -15 -10 -15 -5 0 -10 7 -10 15 0 8 5 15 10 15 6 0 10 -7
10 -15z m40 -65 c0 -5 -4 -10 -9 -10 -6 0 -13 5 -16 10 -3 6 1 10 9 10 9 0 16
-4 16 -10z m20 -25 c0 -8 -4 -15 -10 -15 -5 0 -7 7 -4 15 4 8 8 15 10 15 2 0
4 -7 4 -15z m-50 -26 c0 -5 -7 -9 -15 -9 -9 0 -15 9 -15 21 0 18 2 19 15 9 8
-7 15 -16 15 -21z m50 -19 c0 -5 -4 -10 -9 -10 -6 0 -13 5 -16 10 -3 6 1 10 9
10 9 0 16 -4 16 -10z m420 -36 c0 -8 -4 -14 -10 -14 -5 0 -10 9 -10 21 0 11 5
17 10 14 6 -3 10 -13 10 -21z m-416 -38 c-6 -15 -24 -23 -24 -11 0 8 24 34 28
30 1 -1 0 -10 -4 -19z m51 -6 c-3 -5 -11 -10 -16 -10 -6 0 -7 5 -4 10 3 6 11
10 16 10 6 0 7 -4 4 -10z m415 -100 c0 -38 -4 -50 -15 -50 -11 0 -15 12 -15
50 0 38 4 50 15 50 11 0 15 -12 15 -50z m5 -75 c76 0 85 -2 85 -19 0 -13 -5
-17 -20 -13 -11 3 -38 1 -60 -4 -43 -10 -90 -3 -90 13 0 5 -14 23 -30 40 -17
16 -27 34 -24 40 3 5 17 -5 30 -24 l24 -33 85 0z m-529 -13 c-4 -3 -11 0 -16
8 -15 24 -11 33 6 15 9 -9 13 -19 10 -23z m190 -19 c-10 -10 -19 5 -10 18 6
11 8 11 12 0 2 -7 1 -15 -2 -18z m-201 -3 c3 -5 1 -10 -4 -10 -6 0 -11 5 -11
10 0 6 2 10 4 10 3 0 8 -4 11 -10z m102 -6 c-3 -3 -12 -4 -19 -1 -8 3 -5 6 6
6 11 1 17 -2 13 -5z m-162 -24 c-8 -13 -35 -13 -35 0 0 6 9 10 21 10 11 0 17
-4 14 -10z"/>
<path d="M5337 592 c-15 -2 -25 -8 -22 -13 8 -12 42 -11 50 2 9 14 5 15 -28
11z"/>
<path d="M1990 585 c0 -5 5 -17 10 -25 5 -8 10 -10 10 -5 0 6 -5 17 -10 25 -5
8 -10 11 -10 5z"/>
<path d="M7320 490 c0 -5 5 -10 11 -10 5 0 7 5 4 10 -3 6 -8 10 -11 10 -2 0
-4 -4 -4 -10z"/>
<path d="M1731 408 c-7 -29 -19 -63 -27 -75 -8 -12 -14 -33 -14 -45 1 -22 1
-22 15 -4 8 11 15 28 15 39 0 10 8 21 18 24 28 7 41 36 33 73 -10 51 -26 46
-40 -12z"/>
<path d="M1883 444 c-3 -8 -1 -20 6 -27 8 -8 11 -4 11 16 0 30 -7 35 -17 11z"/>
<path d="M4610 444 c0 -8 5 -12 10 -9 6 4 8 11 5 16 -9 14 -15 11 -15 -7z"/>
<path d="M1900 364 c0 -10 31 -36 37 -31 3 3 -2 13 -10 22 -16 15 -27 19 -27
9z"/>
<path d="M2630 361 c0 -6 4 -13 10 -16 6 -3 7 1 4 9 -7 18 -14 21 -14 7z"/>
<path d="M4365 360 c-3 -5 -1 -10 4 -10 6 0 11 5 11 10 0 6 -2 10 -4 10 -3 0
-8 -4 -11 -10z"/>
<path d="M1920 307 c0 -10 8 -17 18 -17 9 0 13 4 7 8 -5 4 -13 11 -17 16 -5 5
-8 2 -8 -7z"/>
<path d="M2551 294 c0 -11 3 -14 6 -6 3 7 2 16 -1 19 -3 4 -6 -2 -5 -13z"/>
<path d="M2628 280 c-14 -32 6 -120 28 -120 8 0 11 6 8 15 -4 8 -10 15 -15 15
-4 0 -9 24 -11 53 -2 28 -6 45 -10 37z"/>
<path d="M8690 280 c0 -5 5 -10 10 -10 6 0 10 5 10 10 0 6 -4 10 -10 10 -5 0
-10 -4 -10 -10z"/>
<path d="M8048 273 c7 -3 16 -2 19 1 4 3 -2 6 -13 5 -11 0 -14 -3 -6 -6z"/>
<path d="M8151 254 c0 -11 3 -14 6 -6 3 7 2 16 -1 19 -3 4 -6 -2 -5 -13z"/>
<path d="M2264 215 c3 -40 21 -75 49 -96 14 -11 -5 -60 -27 -69 -11 -5 -16 -9
-10 -9 7 -1 14 -10 17 -21 4 -17 13 -20 69 -20 51 1 59 3 43 12 -36 19 -55 40
-47 52 3 6 7 15 7 21 0 5 8 11 18 13 13 3 17 -3 17 -28 0 -18 4 -29 10 -25 14
9 12 71 -2 83 -7 6 -30 13 -50 17 -28 5 -43 16 -58 40 -11 18 -20 39 -20 48 0
9 -4 19 -10 22 -6 4 -8 -12 -6 -40z"/>
<path d="M8170 246 c0 -8 4 -17 9 -20 10 -7 23 19 14 28 -11 11 -23 6 -23 -8z"/>
<path d="M8080 240 c0 -5 7 -10 15 -10 8 0 15 5 15 10 0 6 -7 10 -15 10 -8 0
-15 -4 -15 -10z"/>
<path d="M1850 190 c-13 -8 -12 -10 3 -10 9 0 17 5 17 10 0 12 -1 12 -20 0z"/>
<path d="M4500 190 c0 -5 5 -10 10 -10 6 0 10 5 10 10 0 6 -4 10 -10 10 -5 0
-10 -4 -10 -10z"/>
<path d="M1700 181 c0 -14 10 -18 55 -26 l40 -6 -40 20 c-45 23 -55 25 -55 12z"/>
<path d="M8210 180 c0 -6 7 -19 16 -27 14 -15 16 -14 12 7 -3 24 -28 41 -28
20z"/>
<path d="M8147 160 c3 -10 8 -18 12 -17 4 1 19 -11 34 -28 14 -16 27 -24 27
-17 0 14 -58 82 -71 82 -4 0 -5 -9 -2 -20z"/>
<path d="M1856 162 c6 -4 13 -15 17 -24 6 -18 37 -25 37 -10 0 14 -35 42 -51
42 -9 0 -10 -3 -3 -8z"/>
<path d="M2666 143 c-12 -12 -6 -44 9 -49 8 -4 13 -10 10 -14 -5 -8 35 -43 42
-36 2 1 -5 24 -14 49 -16 44 -34 63 -47 50z"/>
<path d="M1711 131 c-21 -13 -5 -41 24 -41 26 0 34 -14 13 -24 -7 -3 -3 -3 10
0 17 4 22 1 22 -14 0 -18 37 -38 49 -27 2 3 -1 5 -7 5 -7 0 -12 5 -12 11 0 6
7 9 15 5 8 -3 15 -1 15 4 0 6 -8 10 -18 10 -21 0 -82 51 -82 68 0 14 -10 15
-29 3z"/>
<path d="M5154 106 c-8 -22 3 -33 18 -18 9 9 9 15 0 24 -9 9 -13 7 -18 -6z"/>
<path d="M1890 90 c0 -5 5 -10 11 -10 5 0 7 5 4 10 -3 6 -8 10 -11 10 -2 0 -4
-4 -4 -10z"/>
<path d="M8230 80 c-13 -8 -12 -10 3 -10 9 0 17 5 17 10 0 12 -1 12 -20 0z"/>
<path d="M8370 80 c-8 -5 -10 -10 -5 -10 6 0 17 5 25 10 8 5 11 10 5 10 -5 0
-17 -5 -25 -10z"/>
<path d="M8735 70 c-3 -5 -2 -10 4 -10 5 0 13 5 16 10 3 6 2 10 -4 10 -5 0
-13 -4 -16 -10z"/>
<path d="M4655 60 c-3 -5 3 -10 14 -10 12 0 21 5 21 10 0 6 -6 10 -14 10 -8 0
-18 -4 -21 -10z"/>
<path d="M4505 30 c-3 -5 1 -10 9 -10 8 0 18 5 21 10 3 6 -1 10 -9 10 -8 0
-18 -4 -21 -10z"/>
<path d="M2740 15 c0 -8 7 -15 15 -15 9 0 12 6 9 15 -8 19 -24 19 -24 0z"/>
<path d="M2880 20 c0 -5 5 -10 10 -10 6 0 10 5 10 10 0 6 -4 10 -10 10 -5 0
-10 -4 -10 -10z"/>
</g>
</svg>
